<?xml version="1.0" encoding="UTF-8" standalone="no"?>
<!DOCTYPE svg PUBLIC "-//W3C//DTD SVG 1.1//EN"
 "http://www.w3.org/Graphics/SVG/1.1/DTD/svg11.dtd">
<!-- Generated by graphviz version 3.0.0 (0)
 -->
<!-- Pages: 1 -->
<svg width="1157pt" height="154pt"
 viewBox="0.00 0.00 1157.00 154.00" xmlns="http://www.w3.org/2000/svg" xmlns:xlink="http://www.w3.org/1999/xlink">
<g id="graph0" class="graph" transform="scale(1 1) rotate(0) translate(4 150)">
<polygon fill="white" stroke="transparent" points="-4,4 -4,-150 1153,-150 1153,4 -4,4"/>
<!-- 140404042343440 -->
<g id="node1" class="node">
<title>140404042343440</title>
<polygon fill="none" stroke="black" points="321,-27.5 321,-63.5 515,-63.5 515,-27.5 321,-27.5"/>
<text text-anchor="middle" x="332.5" y="-41.8" font-family="Times,serif" font-size="14.00">e</text>
<polyline fill="none" stroke="black" points="344,-27.5 344,-63.5 "/>
<text text-anchor="middle" x="386.5" y="-41.8" font-family="Times,serif" font-size="14.00">data &#45;6.0000</text>
<polyline fill="none" stroke="black" points="429,-27.5 429,-63.5 "/>
<text text-anchor="middle" x="472" y="-41.8" font-family="Times,serif" font-size="14.00">grad &#45;2.0000</text>
</g>
<!-- 140404042343568+ -->
<g id="node6" class="node">
<title>140404042343568+</title>
<ellipse fill="none" stroke="black" cx="579" cy="-72.5" rx="27" ry="18"/>
<text text-anchor="middle" x="579" y="-68.8" font-family="Times,serif" font-size="14.00">+</text>
</g>
<!-- 140404042343440&#45;&gt;140404042343568+ -->
<g id="edge7" class="edge">
<title>140404042343440&#45;&gt;140404042343568+</title>
<path fill="none" stroke="black" d="M515.16,-61.83C524.82,-63.47 534.13,-65.05 542.49,-66.47"/>
<polygon fill="black" stroke="black" points="542.09,-69.95 552.54,-68.18 543.26,-63.05 542.09,-69.95"/>
</g>
<!-- 140404042343440* -->
<g id="node2" class="node">
<title>140404042343440*</title>
<ellipse fill="none" stroke="black" cx="257" cy="-45.5" rx="27" ry="18"/>
<text text-anchor="middle" x="257" y="-41.8" font-family="Times,serif" font-size="14.00">*</text>
</g>
<!-- 140404042343440*&#45;&gt;140404042343440 -->
<g id="edge1" class="edge">
<title>140404042343440*&#45;&gt;140404042343440</title>
<path fill="none" stroke="black" d="M284.26,-45.5C292.05,-45.5 301.1,-45.5 310.75,-45.5"/>
<polygon fill="black" stroke="black" points="310.99,-49 320.99,-45.5 310.99,-42 310.99,-49"/>
</g>
<!-- 140404042343504 -->
<g id="node3" class="node">
<title>140404042343504</title>
<polygon fill="none" stroke="black" points="957,-81.5 957,-117.5 1149,-117.5 1149,-81.5 957,-81.5"/>
<text text-anchor="middle" x="969.5" y="-95.8" font-family="Times,serif" font-size="14.00">L</text>
<polyline fill="none" stroke="black" points="982,-81.5 982,-117.5 "/>
<text text-anchor="middle" x="1024.5" y="-95.8" font-family="Times,serif" font-size="14.00">data &#45;8.0000</text>
<polyline fill="none" stroke="black" points="1067,-81.5 1067,-117.5 "/>
<text text-anchor="middle" x="1108" y="-95.8" font-family="Times,serif" font-size="14.00">grad 1.0000</text>
</g>
<!-- 140404042343504* -->
<g id="node4" class="node">
<title>140404042343504*</title>
<ellipse fill="none" stroke="black" cx="894" cy="-99.5" rx="27" ry="18"/>
<text text-anchor="middle" x="894" y="-95.8" font-family="Times,serif" font-size="14.00">*</text>
</g>
<!-- 140404042343504*&#45;&gt;140404042343504 -->
<g id="edge2" class="edge">
<title>140404042343504*&#45;&gt;140404042343504</title>
<path fill="none" stroke="black" d="M921.28,-99.5C928.78,-99.5 937.44,-99.5 946.67,-99.5"/>
<polygon fill="black" stroke="black" points="946.87,-103 956.87,-99.5 946.87,-96 946.87,-103"/>
</g>
<!-- 140404042343568 -->
<g id="node5" class="node">
<title>140404042343568</title>
<polygon fill="none" stroke="black" points="642,-54.5 642,-90.5 831,-90.5 831,-54.5 642,-54.5"/>
<text text-anchor="middle" x="653.5" y="-68.8" font-family="Times,serif" font-size="14.00">d</text>
<polyline fill="none" stroke="black" points="665,-54.5 665,-90.5 "/>
<text text-anchor="middle" x="705" y="-68.8" font-family="Times,serif" font-size="14.00">data 4.0000</text>
<polyline fill="none" stroke="black" points="745,-54.5 745,-90.5 "/>
<text text-anchor="middle" x="788" y="-68.8" font-family="Times,serif" font-size="14.00">grad &#45;2.0000</text>
</g>
<!-- 140404042343568&#45;&gt;140404042343504* -->
<g id="edge9" class="edge">
<title>140404042343568&#45;&gt;140404042343504*</title>
<path fill="none" stroke="black" d="M831.1,-88.75C840.4,-90.37 849.38,-91.93 857.49,-93.33"/>
<polygon fill="black" stroke="black" points="857.14,-96.83 867.59,-95.09 858.34,-89.93 857.14,-96.83"/>
</g>
<!-- 140404042343568+&#45;&gt;140404042343568 -->
<g id="edge3" class="edge">
<title>140404042343568+&#45;&gt;140404042343568</title>
<path fill="none" stroke="black" d="M606.03,-72.5C613.66,-72.5 622.52,-72.5 631.94,-72.5"/>
<polygon fill="black" stroke="black" points="631.94,-76 641.94,-72.5 631.94,-69 631.94,-76"/>
</g>
<!-- 140404042343120 -->
<g id="node7" class="node">
<title>140404042343120</title>
<polygon fill="none" stroke="black" points="0,-55.5 0,-91.5 194,-91.5 194,-55.5 0,-55.5"/>
<text text-anchor="middle" x="11.5" y="-69.8" font-family="Times,serif" font-size="14.00">b</text>
<polyline fill="none" stroke="black" points="23,-55.5 23,-91.5 "/>
<text text-anchor="middle" x="65.5" y="-69.8" font-family="Times,serif" font-size="14.00">data &#45;3.0000</text>
<polyline fill="none" stroke="black" points="108,-55.5 108,-91.5 "/>
<text text-anchor="middle" x="151" y="-69.8" font-family="Times,serif" font-size="14.00">grad &#45;4.0000</text>
</g>
<!-- 140404042343120&#45;&gt;140404042343440* -->
<g id="edge4" class="edge">
<title>140404042343120&#45;&gt;140404042343440*</title>
<path fill="none" stroke="black" d="M194.01,-56.49C203.35,-54.83 212.37,-53.23 220.49,-51.79"/>
<polygon fill="black" stroke="black" points="221.37,-55.19 230.6,-50 220.15,-48.3 221.37,-55.19"/>
</g>
<!-- 140404042343184 -->
<g id="node8" class="node">
<title>140404042343184</title>
<polygon fill="none" stroke="black" points="4.5,-0.5 4.5,-36.5 189.5,-36.5 189.5,-0.5 4.5,-0.5"/>
<text text-anchor="middle" x="16" y="-14.8" font-family="Times,serif" font-size="14.00">a</text>
<polyline fill="none" stroke="black" points="27.5,-0.5 27.5,-36.5 "/>
<text text-anchor="middle" x="67.5" y="-14.8" font-family="Times,serif" font-size="14.00">data 2.0000</text>
<polyline fill="none" stroke="black" points="107.5,-0.5 107.5,-36.5 "/>
<text text-anchor="middle" x="148.5" y="-14.8" font-family="Times,serif" font-size="14.00">grad 6.0000</text>
</g>
<!-- 140404042343184&#45;&gt;140404042343440* -->
<g id="edge6" class="edge">
<title>140404042343184&#45;&gt;140404042343440*</title>
<path fill="none" stroke="black" d="M189.91,-34.21C200.76,-36.06 211.28,-37.86 220.61,-39.45"/>
<polygon fill="black" stroke="black" points="220.16,-42.93 230.6,-41.16 221.34,-36.03 220.16,-42.93"/>
</g>
<!-- 140404042343248 -->
<g id="node9" class="node">
<title>140404042343248</title>
<polygon fill="none" stroke="black" points="642.5,-109.5 642.5,-145.5 830.5,-145.5 830.5,-109.5 642.5,-109.5"/>
<text text-anchor="middle" x="653" y="-123.8" font-family="Times,serif" font-size="14.00">f</text>
<polyline fill="none" stroke="black" points="663.5,-109.5 663.5,-145.5 "/>
<text text-anchor="middle" x="706" y="-123.8" font-family="Times,serif" font-size="14.00">data &#45;2.0000</text>
<polyline fill="none" stroke="black" points="748.5,-109.5 748.5,-145.5 "/>
<text text-anchor="middle" x="789.5" y="-123.8" font-family="Times,serif" font-size="14.00">grad 4.0000</text>
</g>
<!-- 140404042343248&#45;&gt;140404042343504* -->
<g id="edge8" class="edge">
<title>140404042343248&#45;&gt;140404042343504*</title>
<path fill="none" stroke="black" d="M830.65,-110.73C840.2,-109.01 849.43,-107.35 857.72,-105.85"/>
<polygon fill="black" stroke="black" points="858.47,-109.27 867.69,-104.06 857.23,-102.39 858.47,-109.27"/>
</g>
<!-- 140404036319184 -->
<g id="node10" class="node">
<title>140404036319184</title>
<polygon fill="none" stroke="black" points="320,-82.5 320,-118.5 516,-118.5 516,-82.5 320,-82.5"/>
<text text-anchor="middle" x="331.5" y="-96.8" font-family="Times,serif" font-size="14.00">c</text>
<polyline fill="none" stroke="black" points="343,-82.5 343,-118.5 "/>
<text text-anchor="middle" x="386.5" y="-96.8" font-family="Times,serif" font-size="14.00">data 10.0000</text>
<polyline fill="none" stroke="black" points="430,-82.5 430,-118.5 "/>
<text text-anchor="middle" x="473" y="-96.8" font-family="Times,serif" font-size="14.00">grad &#45;2.0000</text>
</g>
<!-- 140404036319184&#45;&gt;140404042343568+ -->
<g id="edge5" class="edge">
<title>140404036319184&#45;&gt;140404042343568+</title>
<path fill="none" stroke="black" d="M516.07,-83.41C525.42,-81.76 534.43,-80.17 542.55,-78.74"/>
<polygon fill="black" stroke="black" points="543.41,-82.15 552.65,-76.96 542.2,-75.25 543.41,-82.15"/>
</g>
</g>
</svg>
