<?xml version="1.0" encoding="UTF-8" standalone="no"?>
<!DOCTYPE svg PUBLIC "-//W3C//DTD SVG 1.1//EN"
 "http://www.w3.org/Graphics/SVG/1.1/DTD/svg11.dtd">
<!-- Generated by graphviz version 3.0.0 (0)
 -->
<!-- Pages: 1 -->
<svg width="2944pt" height="236pt"
 viewBox="0.00 0.00 2944.00 236.00" xmlns="http://www.w3.org/2000/svg" xmlns:xlink="http://www.w3.org/1999/xlink">
<g id="graph0" class="graph" transform="scale(1 1) rotate(0) translate(4 232)">
<polygon fill="white" stroke="transparent" points="-4,4 -4,-232 2940,-232 2940,4 -4,4"/>
<!-- 140589341502480 -->
<g id="node1" class="node">
<title>140589341502480</title>
<polygon fill="none" stroke="black" points="1692.5,-136.5 1692.5,-172.5 1874.5,-172.5 1874.5,-136.5 1692.5,-136.5"/>
<text text-anchor="middle" x="1702.5" y="-150.8" font-family="Times,serif" font-size="14.00"> </text>
<polyline fill="none" stroke="black" points="1712.5,-136.5 1712.5,-172.5 "/>
<text text-anchor="middle" x="1752.5" y="-150.8" font-family="Times,serif" font-size="14.00">data 5.8284</text>
<polyline fill="none" stroke="black" points="1792.5,-136.5 1792.5,-172.5 "/>
<text text-anchor="middle" x="1833.5" y="-150.8" font-family="Times,serif" font-size="14.00">grad 0.0429</text>
</g>
<!-- 140589341503120+ -->
<g id="node9" class="node">
<title>140589341503120+</title>
<ellipse fill="none" stroke="black" cx="1940" cy="-126.5" rx="27" ry="18"/>
<text text-anchor="middle" x="1940" y="-122.8" font-family="Times,serif" font-size="14.00">+</text>
</g>
<!-- 140589341502480&#45;&gt;140589341503120+ -->
<g id="edge22" class="edge">
<title>140589341502480&#45;&gt;140589341503120+</title>
<path fill="none" stroke="black" d="M1874.82,-138.13C1885.07,-136.27 1895.01,-134.47 1903.88,-132.87"/>
<polygon fill="black" stroke="black" points="1904.54,-136.3 1913.75,-131.08 1903.29,-129.42 1904.54,-136.3"/>
</g>
<!-- 140589341502800+ -->
<g id="node24" class="node">
<title>140589341502800+</title>
<ellipse fill="none" stroke="black" cx="1940" cy="-181.5" rx="27" ry="18"/>
<text text-anchor="middle" x="1940" y="-177.8" font-family="Times,serif" font-size="14.00">+</text>
</g>
<!-- 140589341502480&#45;&gt;140589341502800+ -->
<g id="edge13" class="edge">
<title>140589341502480&#45;&gt;140589341502800+</title>
<path fill="none" stroke="black" d="M1874.82,-170.28C1885.07,-172.08 1895.01,-173.81 1903.88,-175.36"/>
<polygon fill="black" stroke="black" points="1903.3,-178.81 1913.75,-177.09 1904.5,-171.92 1903.3,-178.81"/>
</g>
<!-- 140589341502480exp -->
<g id="node2" class="node">
<title>140589341502480exp</title>
<ellipse fill="none" stroke="black" cx="1627" cy="-154.5" rx="27" ry="18"/>
<text text-anchor="middle" x="1627" y="-150.8" font-family="Times,serif" font-size="14.00">exp</text>
</g>
<!-- 140589341502480exp&#45;&gt;140589341502480 -->
<g id="edge1" class="edge">
<title>140589341502480exp&#45;&gt;140589341502480</title>
<path fill="none" stroke="black" d="M1654.21,-154.5C1662.34,-154.5 1671.85,-154.5 1681.94,-154.5"/>
<polygon fill="black" stroke="black" points="1682.19,-158 1692.19,-154.5 1682.19,-151 1682.19,-158"/>
</g>
<!-- 140589341500880 -->
<g id="node3" class="node">
<title>140589341500880</title>
<polygon fill="none" stroke="black" points="2.5,-165.5 2.5,-201.5 197.5,-201.5 197.5,-165.5 2.5,-165.5"/>
<text text-anchor="middle" x="19" y="-179.8" font-family="Times,serif" font-size="14.00">w2</text>
<polyline fill="none" stroke="black" points="35.5,-165.5 35.5,-201.5 "/>
<text text-anchor="middle" x="75.5" y="-179.8" font-family="Times,serif" font-size="14.00">data 1.0000</text>
<polyline fill="none" stroke="black" points="115.5,-165.5 115.5,-201.5 "/>
<text text-anchor="middle" x="156.5" y="-179.8" font-family="Times,serif" font-size="14.00">grad 0.0000</text>
</g>
<!-- 140589341501392* -->
<g id="node6" class="node">
<title>140589341501392*</title>
<ellipse fill="none" stroke="black" cx="263" cy="-128.5" rx="27" ry="18"/>
<text text-anchor="middle" x="263" y="-124.8" font-family="Times,serif" font-size="14.00">*</text>
</g>
<!-- 140589341500880&#45;&gt;140589341501392* -->
<g id="edge15" class="edge">
<title>140589341500880&#45;&gt;140589341501392*</title>
<path fill="none" stroke="black" d="M172.53,-165.44C181.84,-162.67 191.2,-159.67 200,-156.5 210.53,-152.71 221.75,-147.9 231.72,-143.33"/>
<polygon fill="black" stroke="black" points="233.25,-146.48 240.82,-139.07 230.28,-140.14 233.25,-146.48"/>
</g>
<!-- 140589341501008 -->
<g id="node4" class="node">
<title>140589341501008</title>
<polygon fill="none" stroke="black" points="716,-137.5 716,-173.5 901,-173.5 901,-137.5 716,-137.5"/>
<text text-anchor="middle" x="727.5" y="-151.8" font-family="Times,serif" font-size="14.00">b</text>
<polyline fill="none" stroke="black" points="739,-137.5 739,-173.5 "/>
<text text-anchor="middle" x="779" y="-151.8" font-family="Times,serif" font-size="14.00">data 6.8814</text>
<polyline fill="none" stroke="black" points="819,-137.5 819,-173.5 "/>
<text text-anchor="middle" x="860" y="-151.8" font-family="Times,serif" font-size="14.00">grad 0.5000</text>
</g>
<!-- 140589341501904+ -->
<g id="node28" class="node">
<title>140589341501904+</title>
<ellipse fill="none" stroke="black" cx="1008" cy="-127.5" rx="27" ry="18"/>
<text text-anchor="middle" x="1008" y="-123.8" font-family="Times,serif" font-size="14.00">+</text>
</g>
<!-- 140589341501008&#45;&gt;140589341501904+ -->
<g id="edge12" class="edge">
<title>140589341501008&#45;&gt;140589341501904+</title>
<path fill="none" stroke="black" d="M901.02,-142.52C926,-138.98 951.59,-135.36 971.37,-132.55"/>
<polygon fill="black" stroke="black" points="972.03,-135.99 981.43,-131.12 971.04,-129.06 972.03,-135.99"/>
</g>
<!-- 140589341501392 -->
<g id="node5" class="node">
<title>140589341501392</title>
<polygon fill="none" stroke="black" points="328.5,-110.5 328.5,-146.5 543.5,-146.5 543.5,-110.5 328.5,-110.5"/>
<text text-anchor="middle" x="355" y="-124.8" font-family="Times,serif" font-size="14.00">x2*w2</text>
<polyline fill="none" stroke="black" points="381.5,-110.5 381.5,-146.5 "/>
<text text-anchor="middle" x="421.5" y="-124.8" font-family="Times,serif" font-size="14.00">data 0.0000</text>
<polyline fill="none" stroke="black" points="461.5,-110.5 461.5,-146.5 "/>
<text text-anchor="middle" x="502.5" y="-124.8" font-family="Times,serif" font-size="14.00">grad 0.5000</text>
</g>
<!-- 140589341501648+ -->
<g id="node12" class="node">
<title>140589341501648+</title>
<ellipse fill="none" stroke="black" cx="609" cy="-100.5" rx="27" ry="18"/>
<text text-anchor="middle" x="609" y="-96.8" font-family="Times,serif" font-size="14.00">+</text>
</g>
<!-- 140589341501392&#45;&gt;140589341501648+ -->
<g id="edge25" class="edge">
<title>140589341501392&#45;&gt;140589341501648+</title>
<path fill="none" stroke="black" d="M543.84,-111.01C554.01,-109.34 563.76,-107.74 572.44,-106.32"/>
<polygon fill="black" stroke="black" points="573.17,-109.75 582.47,-104.68 572.04,-102.84 573.17,-109.75"/>
</g>
<!-- 140589341501392*&#45;&gt;140589341501392 -->
<g id="edge2" class="edge">
<title>140589341501392*&#45;&gt;140589341501392</title>
<path fill="none" stroke="black" d="M290.34,-128.5C298.51,-128.5 308.08,-128.5 318.36,-128.5"/>
<polygon fill="black" stroke="black" points="318.39,-132 328.39,-128.5 318.39,-125 318.39,-132"/>
</g>
<!-- 140589341503056 -->
<g id="node7" class="node">
<title>140589341503056</title>
<polygon fill="none" stroke="black" points="1690.5,-81.5 1690.5,-117.5 1876.5,-117.5 1876.5,-81.5 1690.5,-81.5"/>
<text text-anchor="middle" x="1700.5" y="-95.8" font-family="Times,serif" font-size="14.00"> </text>
<polyline fill="none" stroke="black" points="1710.5,-81.5 1710.5,-117.5 "/>
<text text-anchor="middle" x="1750.5" y="-95.8" font-family="Times,serif" font-size="14.00">data 1.0000</text>
<polyline fill="none" stroke="black" points="1790.5,-81.5 1790.5,-117.5 "/>
<text text-anchor="middle" x="1833.5" y="-95.8" font-family="Times,serif" font-size="14.00">grad &#45;0.1036</text>
</g>
<!-- 140589341503056&#45;&gt;140589341503120+ -->
<g id="edge11" class="edge">
<title>140589341503056&#45;&gt;140589341503120+</title>
<path fill="none" stroke="black" d="M1876.6,-115.6C1886.15,-117.26 1895.37,-118.88 1903.68,-120.33"/>
<polygon fill="black" stroke="black" points="1903.2,-123.8 1913.65,-122.07 1904.4,-116.9 1903.2,-123.8"/>
</g>
<!-- 140589341503120 -->
<g id="node8" class="node">
<title>140589341503120</title>
<polygon fill="none" stroke="black" points="2003,-108.5 2003,-144.5 2189,-144.5 2189,-108.5 2003,-108.5"/>
<text text-anchor="middle" x="2013" y="-122.8" font-family="Times,serif" font-size="14.00"> </text>
<polyline fill="none" stroke="black" points="2023,-108.5 2023,-144.5 "/>
<text text-anchor="middle" x="2063" y="-122.8" font-family="Times,serif" font-size="14.00">data 6.8284</text>
<polyline fill="none" stroke="black" points="2103,-108.5 2103,-144.5 "/>
<text text-anchor="middle" x="2146" y="-122.8" font-family="Times,serif" font-size="14.00">grad &#45;0.1036</text>
</g>
<!-- 140589341503376**&#45;1 -->
<g id="node26" class="node">
<title>140589341503376**&#45;1</title>
<ellipse fill="none" stroke="black" cx="2316" cy="-126.5" rx="27" ry="18"/>
<text text-anchor="middle" x="2316" y="-122.8" font-family="Times,serif" font-size="14.00">**&#45;1</text>
</g>
<!-- 140589341503120&#45;&gt;140589341503376**&#45;1 -->
<g id="edge28" class="edge">
<title>140589341503120&#45;&gt;140589341503376**&#45;1</title>
<path fill="none" stroke="black" d="M2189.14,-126.5C2220.72,-126.5 2254.24,-126.5 2278.74,-126.5"/>
<polygon fill="black" stroke="black" points="2278.98,-130 2288.98,-126.5 2278.98,-123 2278.98,-130"/>
</g>
<!-- 140589341503120+&#45;&gt;140589341503120 -->
<g id="edge3" class="edge">
<title>140589341503120+&#45;&gt;140589341503120</title>
<path fill="none" stroke="black" d="M1967.12,-126.5C1974.62,-126.5 1983.29,-126.5 1992.5,-126.5"/>
<polygon fill="black" stroke="black" points="1992.69,-130 2002.69,-126.5 1992.69,-123 1992.69,-130"/>
</g>
<!-- 140589341500560 -->
<g id="node10" class="node">
<title>140589341500560</title>
<polygon fill="none" stroke="black" points="4,-110.5 4,-146.5 196,-146.5 196,-110.5 4,-110.5"/>
<text text-anchor="middle" x="19" y="-124.8" font-family="Times,serif" font-size="14.00">x2</text>
<polyline fill="none" stroke="black" points="34,-110.5 34,-146.5 "/>
<text text-anchor="middle" x="74" y="-124.8" font-family="Times,serif" font-size="14.00">data 0.0000</text>
<polyline fill="none" stroke="black" points="114,-110.5 114,-146.5 "/>
<text text-anchor="middle" x="155" y="-124.8" font-family="Times,serif" font-size="14.00">grad 0.5000</text>
</g>
<!-- 140589341500560&#45;&gt;140589341501392* -->
<g id="edge21" class="edge">
<title>140589341500560&#45;&gt;140589341501392*</title>
<path fill="none" stroke="black" d="M196.05,-128.5C206.52,-128.5 216.65,-128.5 225.71,-128.5"/>
<polygon fill="black" stroke="black" points="225.79,-132 235.79,-128.5 225.79,-125 225.79,-132"/>
</g>
<!-- 140589341501648 -->
<g id="node11" class="node">
<title>140589341501648</title>
<polygon fill="none" stroke="black" points="672,-82.5 672,-118.5 945,-118.5 945,-82.5 672,-82.5"/>
<text text-anchor="middle" x="725" y="-96.8" font-family="Times,serif" font-size="14.00">x1*w1 + x2*w2</text>
<polyline fill="none" stroke="black" points="778,-82.5 778,-118.5 "/>
<text text-anchor="middle" x="820.5" y="-96.8" font-family="Times,serif" font-size="14.00">data &#45;6.0000</text>
<polyline fill="none" stroke="black" points="863,-82.5 863,-118.5 "/>
<text text-anchor="middle" x="904" y="-96.8" font-family="Times,serif" font-size="14.00">grad 0.5000</text>
</g>
<!-- 140589341501648&#45;&gt;140589341501904+ -->
<g id="edge23" class="edge">
<title>140589341501648&#45;&gt;140589341501904+</title>
<path fill="none" stroke="black" d="M941.24,-118.51C952.12,-120 962.4,-121.4 971.45,-122.64"/>
<polygon fill="black" stroke="black" points="971.11,-126.13 981.49,-124.01 972.05,-119.19 971.11,-126.13"/>
</g>
<!-- 140589341501648+&#45;&gt;140589341501648 -->
<g id="edge4" class="edge">
<title>140589341501648+&#45;&gt;140589341501648</title>
<path fill="none" stroke="black" d="M636.23,-100.5C643.7,-100.5 652.41,-100.5 661.87,-100.5"/>
<polygon fill="black" stroke="black" points="661.98,-104 671.98,-100.5 661.98,-97 661.98,-104"/>
</g>
<!-- 140589341500624 -->
<g id="node13" class="node">
<title>140589341500624</title>
<polygon fill="none" stroke="black" points="2,-55.5 2,-91.5 198,-91.5 198,-55.5 2,-55.5"/>
<text text-anchor="middle" x="17" y="-69.8" font-family="Times,serif" font-size="14.00">x1</text>
<polyline fill="none" stroke="black" points="32,-55.5 32,-91.5 "/>
<text text-anchor="middle" x="72" y="-69.8" font-family="Times,serif" font-size="14.00">data 2.0000</text>
<polyline fill="none" stroke="black" points="112,-55.5 112,-91.5 "/>
<text text-anchor="middle" x="155" y="-69.8" font-family="Times,serif" font-size="14.00">grad &#45;1.5000</text>
</g>
<!-- 140589341500816* -->
<g id="node16" class="node">
<title>140589341500816*</title>
<ellipse fill="none" stroke="black" cx="263" cy="-73.5" rx="27" ry="18"/>
<text text-anchor="middle" x="263" y="-69.8" font-family="Times,serif" font-size="14.00">*</text>
</g>
<!-- 140589341500624&#45;&gt;140589341500816* -->
<g id="edge17" class="edge">
<title>140589341500624&#45;&gt;140589341500816*</title>
<path fill="none" stroke="black" d="M198.37,-73.5C208.05,-73.5 217.4,-73.5 225.8,-73.5"/>
<polygon fill="black" stroke="black" points="225.91,-77 235.91,-73.5 225.91,-70 225.91,-77"/>
</g>
<!-- 140589341502672 -->
<g id="node14" class="node">
<title>140589341502672</title>
<polygon fill="none" stroke="black" points="1690,-191.5 1690,-227.5 1877,-227.5 1877,-191.5 1690,-191.5"/>
<text text-anchor="middle" x="1700" y="-205.8" font-family="Times,serif" font-size="14.00"> </text>
<polyline fill="none" stroke="black" points="1710,-191.5 1710,-227.5 "/>
<text text-anchor="middle" x="1752.5" y="-205.8" font-family="Times,serif" font-size="14.00">data &#45;1.0000</text>
<polyline fill="none" stroke="black" points="1795,-191.5 1795,-227.5 "/>
<text text-anchor="middle" x="1836" y="-205.8" font-family="Times,serif" font-size="14.00">grad 0.1464</text>
</g>
<!-- 140589341502672&#45;&gt;140589341502800+ -->
<g id="edge27" class="edge">
<title>140589341502672&#45;&gt;140589341502800+</title>
<path fill="none" stroke="black" d="M1877.05,-192.73C1886.54,-191.01 1895.71,-189.35 1903.95,-187.85"/>
<polygon fill="black" stroke="black" points="1904.64,-191.28 1913.85,-186.06 1903.39,-184.4 1904.64,-191.28"/>
</g>
<!-- 140589341500816 -->
<g id="node15" class="node">
<title>140589341500816</title>
<polygon fill="none" stroke="black" points="326,-55.5 326,-91.5 546,-91.5 546,-55.5 326,-55.5"/>
<text text-anchor="middle" x="352.5" y="-69.8" font-family="Times,serif" font-size="14.00">x1*w1</text>
<polyline fill="none" stroke="black" points="379,-55.5 379,-91.5 "/>
<text text-anchor="middle" x="421.5" y="-69.8" font-family="Times,serif" font-size="14.00">data &#45;6.0000</text>
<polyline fill="none" stroke="black" points="464,-55.5 464,-91.5 "/>
<text text-anchor="middle" x="505" y="-69.8" font-family="Times,serif" font-size="14.00">grad 0.5000</text>
</g>
<!-- 140589341500816&#45;&gt;140589341501648+ -->
<g id="edge20" class="edge">
<title>140589341500816&#45;&gt;140589341501648+</title>
<path fill="none" stroke="black" d="M546.27,-90.75C555.64,-92.23 564.6,-93.65 572.65,-94.92"/>
<polygon fill="black" stroke="black" points="572.23,-98.4 582.65,-96.5 573.32,-91.48 572.23,-98.4"/>
</g>
<!-- 140589341500816*&#45;&gt;140589341500816 -->
<g id="edge5" class="edge">
<title>140589341500816*&#45;&gt;140589341500816</title>
<path fill="none" stroke="black" d="M290.34,-73.5C297.77,-73.5 306.37,-73.5 315.6,-73.5"/>
<polygon fill="black" stroke="black" points="315.84,-77 325.84,-73.5 315.84,-70 315.84,-77"/>
</g>
<!-- 140589341618448 -->
<g id="node17" class="node">
<title>140589341618448</title>
<polygon fill="none" stroke="black" points="2751,-135.5 2751,-171.5 2936,-171.5 2936,-135.5 2751,-135.5"/>
<text text-anchor="middle" x="2762.5" y="-149.8" font-family="Times,serif" font-size="14.00">o</text>
<polyline fill="none" stroke="black" points="2774,-135.5 2774,-171.5 "/>
<text text-anchor="middle" x="2814" y="-149.8" font-family="Times,serif" font-size="14.00">data 0.7071</text>
<polyline fill="none" stroke="black" points="2854,-135.5 2854,-171.5 "/>
<text text-anchor="middle" x="2895" y="-149.8" font-family="Times,serif" font-size="14.00">grad 1.0000</text>
</g>
<!-- 140589341618448* -->
<g id="node18" class="node">
<title>140589341618448*</title>
<ellipse fill="none" stroke="black" cx="2688" cy="-153.5" rx="27" ry="18"/>
<text text-anchor="middle" x="2688" y="-149.8" font-family="Times,serif" font-size="14.00">*</text>
</g>
<!-- 140589341618448*&#45;&gt;140589341618448 -->
<g id="edge6" class="edge">
<title>140589341618448*&#45;&gt;140589341618448</title>
<path fill="none" stroke="black" d="M2715.04,-153.5C2722.58,-153.5 2731.3,-153.5 2740.57,-153.5"/>
<polygon fill="black" stroke="black" points="2740.81,-157 2750.81,-153.5 2740.81,-150 2740.81,-157"/>
</g>
<!-- 140589341502224 -->
<g id="node19" class="node">
<title>140589341502224</title>
<polygon fill="none" stroke="black" points="1072.5,-164.5 1072.5,-200.5 1254.5,-200.5 1254.5,-164.5 1072.5,-164.5"/>
<text text-anchor="middle" x="1082.5" y="-178.8" font-family="Times,serif" font-size="14.00"> </text>
<polyline fill="none" stroke="black" points="1092.5,-164.5 1092.5,-200.5 "/>
<text text-anchor="middle" x="1132.5" y="-178.8" font-family="Times,serif" font-size="14.00">data 2.0000</text>
<polyline fill="none" stroke="black" points="1172.5,-164.5 1172.5,-200.5 "/>
<text text-anchor="middle" x="1213.5" y="-178.8" font-family="Times,serif" font-size="14.00">grad 0.2203</text>
</g>
<!-- 140589341502288* -->
<g id="node22" class="node">
<title>140589341502288*</title>
<ellipse fill="none" stroke="black" cx="1319" cy="-154.5" rx="27" ry="18"/>
<text text-anchor="middle" x="1319" y="-150.8" font-family="Times,serif" font-size="14.00">*</text>
</g>
<!-- 140589341502224&#45;&gt;140589341502288* -->
<g id="edge19" class="edge">
<title>140589341502224&#45;&gt;140589341502288*</title>
<path fill="none" stroke="black" d="M1254.68,-166.05C1264.61,-164.24 1274.23,-162.48 1282.84,-160.91"/>
<polygon fill="black" stroke="black" points="1283.6,-164.33 1292.81,-159.09 1282.35,-157.45 1283.6,-164.33"/>
</g>
<!-- 140589341500688 -->
<g id="node20" class="node">
<title>140589341500688</title>
<polygon fill="none" stroke="black" points="0,-0.5 0,-36.5 200,-36.5 200,-0.5 0,-0.5"/>
<text text-anchor="middle" x="16.5" y="-14.8" font-family="Times,serif" font-size="14.00">w1</text>
<polyline fill="none" stroke="black" points="33,-0.5 33,-36.5 "/>
<text text-anchor="middle" x="75.5" y="-14.8" font-family="Times,serif" font-size="14.00">data &#45;3.0000</text>
<polyline fill="none" stroke="black" points="118,-0.5 118,-36.5 "/>
<text text-anchor="middle" x="159" y="-14.8" font-family="Times,serif" font-size="14.00">grad 1.0000</text>
</g>
<!-- 140589341500688&#45;&gt;140589341500816* -->
<g id="edge24" class="edge">
<title>140589341500688&#45;&gt;140589341500816*</title>
<path fill="none" stroke="black" d="M172.53,-36.56C181.84,-39.33 191.2,-42.33 200,-45.5 210.53,-49.29 221.75,-54.1 231.72,-58.67"/>
<polygon fill="black" stroke="black" points="230.28,-61.86 240.82,-62.93 233.25,-55.52 230.28,-61.86"/>
</g>
<!-- 140589341502288 -->
<g id="node21" class="node">
<title>140589341502288</title>
<polygon fill="none" stroke="black" points="1382,-136.5 1382,-172.5 1564,-172.5 1564,-136.5 1382,-136.5"/>
<text text-anchor="middle" x="1392" y="-150.8" font-family="Times,serif" font-size="14.00"> </text>
<polyline fill="none" stroke="black" points="1402,-136.5 1402,-172.5 "/>
<text text-anchor="middle" x="1442" y="-150.8" font-family="Times,serif" font-size="14.00">data 1.7627</text>
<polyline fill="none" stroke="black" points="1482,-136.5 1482,-172.5 "/>
<text text-anchor="middle" x="1523" y="-150.8" font-family="Times,serif" font-size="14.00">grad 0.2500</text>
</g>
<!-- 140589341502288&#45;&gt;140589341502480exp -->
<g id="edge16" class="edge">
<title>140589341502288&#45;&gt;140589341502480exp</title>
<path fill="none" stroke="black" d="M1564.18,-154.5C1573.14,-154.5 1581.83,-154.5 1589.73,-154.5"/>
<polygon fill="black" stroke="black" points="1589.96,-158 1599.96,-154.5 1589.96,-151 1589.96,-158"/>
</g>
<!-- 140589341502288*&#45;&gt;140589341502288 -->
<g id="edge7" class="edge">
<title>140589341502288*&#45;&gt;140589341502288</title>
<path fill="none" stroke="black" d="M1346.13,-154.5C1353.67,-154.5 1362.39,-154.5 1371.64,-154.5"/>
<polygon fill="black" stroke="black" points="1371.87,-158 1381.87,-154.5 1371.87,-151 1371.87,-158"/>
</g>
<!-- 140589341502800 -->
<g id="node23" class="node">
<title>140589341502800</title>
<polygon fill="none" stroke="black" points="2225,-163.5 2225,-199.5 2407,-199.5 2407,-163.5 2225,-163.5"/>
<text text-anchor="middle" x="2235" y="-177.8" font-family="Times,serif" font-size="14.00"> </text>
<polyline fill="none" stroke="black" points="2245,-163.5 2245,-199.5 "/>
<text text-anchor="middle" x="2285" y="-177.8" font-family="Times,serif" font-size="14.00">data 4.8284</text>
<polyline fill="none" stroke="black" points="2325,-163.5 2325,-199.5 "/>
<text text-anchor="middle" x="2366" y="-177.8" font-family="Times,serif" font-size="14.00">grad 0.1464</text>
</g>
<!-- 140589341502800&#45;&gt;140589341618448* -->
<g id="edge26" class="edge">
<title>140589341502800&#45;&gt;140589341618448*</title>
<path fill="none" stroke="black" d="M2407.31,-174.9C2468.7,-170.37 2551.76,-164.19 2625,-158.5 2633.42,-157.85 2642.48,-157.13 2651.01,-156.44"/>
<polygon fill="black" stroke="black" points="2651.37,-159.92 2661.06,-155.63 2650.81,-152.94 2651.37,-159.92"/>
</g>
<!-- 140589341502800+&#45;&gt;140589341502800 -->
<g id="edge8" class="edge">
<title>140589341502800+&#45;&gt;140589341502800</title>
<path fill="none" stroke="black" d="M1967,-181.5C2017.46,-181.5 2131.06,-181.5 2214.81,-181.5"/>
<polygon fill="black" stroke="black" points="2214.87,-185 2224.87,-181.5 2214.87,-178 2214.87,-185"/>
</g>
<!-- 140589341503376 -->
<g id="node25" class="node">
<title>140589341503376</title>
<polygon fill="none" stroke="black" points="2443,-112.5 2443,-148.5 2625,-148.5 2625,-112.5 2443,-112.5"/>
<text text-anchor="middle" x="2453" y="-126.8" font-family="Times,serif" font-size="14.00"> </text>
<polyline fill="none" stroke="black" points="2463,-112.5 2463,-148.5 "/>
<text text-anchor="middle" x="2503" y="-126.8" font-family="Times,serif" font-size="14.00">data 0.1464</text>
<polyline fill="none" stroke="black" points="2543,-112.5 2543,-148.5 "/>
<text text-anchor="middle" x="2584" y="-126.8" font-family="Times,serif" font-size="14.00">grad 4.8284</text>
</g>
<!-- 140589341503376&#45;&gt;140589341618448* -->
<g id="edge14" class="edge">
<title>140589341503376&#45;&gt;140589341618448*</title>
<path fill="none" stroke="black" d="M2625.18,-144.15C2634.42,-145.54 2643.38,-146.9 2651.47,-148.12"/>
<polygon fill="black" stroke="black" points="2651.15,-151.61 2661.56,-149.65 2652.19,-144.69 2651.15,-151.61"/>
</g>
<!-- 140589341503376**&#45;1&#45;&gt;140589341503376 -->
<g id="edge9" class="edge">
<title>140589341503376**&#45;1&#45;&gt;140589341503376</title>
<path fill="none" stroke="black" d="M2343.05,-126.98C2365.53,-127.4 2399.48,-128.03 2432.5,-128.64"/>
<polygon fill="black" stroke="black" points="2432.64,-132.14 2442.7,-128.83 2432.77,-125.14 2432.64,-132.14"/>
</g>
<!-- 140589341501904 -->
<g id="node27" class="node">
<title>140589341501904</title>
<polygon fill="none" stroke="black" points="1071,-109.5 1071,-145.5 1256,-145.5 1256,-109.5 1071,-109.5"/>
<text text-anchor="middle" x="1082.5" y="-123.8" font-family="Times,serif" font-size="14.00">n</text>
<polyline fill="none" stroke="black" points="1094,-109.5 1094,-145.5 "/>
<text text-anchor="middle" x="1134" y="-123.8" font-family="Times,serif" font-size="14.00">data 0.8814</text>
<polyline fill="none" stroke="black" points="1174,-109.5 1174,-145.5 "/>
<text text-anchor="middle" x="1215" y="-123.8" font-family="Times,serif" font-size="14.00">grad 0.5000</text>
</g>
<!-- 140589341501904&#45;&gt;140589341502288* -->
<g id="edge18" class="edge">
<title>140589341501904&#45;&gt;140589341502288*</title>
<path fill="none" stroke="black" d="M1256.01,-143.6C1265.49,-145.26 1274.66,-146.88 1282.9,-148.33"/>
<polygon fill="black" stroke="black" points="1282.36,-151.78 1292.81,-150.07 1283.57,-144.89 1282.36,-151.78"/>
</g>
<!-- 140589341501904+&#45;&gt;140589341501904 -->
<g id="edge10" class="edge">
<title>140589341501904+&#45;&gt;140589341501904</title>
<path fill="none" stroke="black" d="M1035.04,-127.5C1042.58,-127.5 1051.3,-127.5 1060.57,-127.5"/>
<polygon fill="black" stroke="black" points="1060.81,-131 1070.81,-127.5 1060.81,-124 1060.81,-131"/>
</g>
</g>
</svg>
