<?xml version="1.0" encoding="UTF-8" standalone="no"?>
<!DOCTYPE svg PUBLIC "-//W3C//DTD SVG 1.1//EN"
 "http://www.w3.org/Graphics/SVG/1.1/DTD/svg11.dtd">
<!-- Generated by graphviz version 3.0.0 (0)
 -->
<!-- Pages: 1 -->
<svg width="2944pt" height="210pt"
 viewBox="0.00 0.00 2944.00 210.00" xmlns="http://www.w3.org/2000/svg" xmlns:xlink="http://www.w3.org/1999/xlink">
<g id="graph0" class="graph" transform="scale(1 1) rotate(0) translate(4 206)">
<polygon fill="white" stroke="transparent" points="-4,4 -4,-206 2940,-206 2940,4 -4,4"/>
<!-- 140404045670416 -->
<g id="node1" class="node">
<title>140404045670416</title>
<polygon fill="none" stroke="black" points="2225,-108.5 2225,-144.5 2407,-144.5 2407,-108.5 2225,-108.5"/>
<text text-anchor="middle" x="2235" y="-122.8" font-family="Times,serif" font-size="14.00"> </text>
<polyline fill="none" stroke="black" points="2245,-108.5 2245,-144.5 "/>
<text text-anchor="middle" x="2285" y="-122.8" font-family="Times,serif" font-size="14.00">data 4.8284</text>
<polyline fill="none" stroke="black" points="2325,-108.5 2325,-144.5 "/>
<text text-anchor="middle" x="2366" y="-122.8" font-family="Times,serif" font-size="14.00">grad 0.1464</text>
</g>
<!-- 140404045524432* -->
<g id="node28" class="node">
<title>140404045524432*</title>
<ellipse fill="none" stroke="black" cx="2688" cy="-98.5" rx="27" ry="18"/>
<text text-anchor="middle" x="2688" y="-94.8" font-family="Times,serif" font-size="14.00">*</text>
</g>
<!-- 140404045670416&#45;&gt;140404045524432* -->
<g id="edge27" class="edge">
<title>140404045670416&#45;&gt;140404045524432*</title>
<path fill="none" stroke="black" d="M2407.31,-119.9C2468.7,-115.37 2551.76,-109.19 2625,-103.5 2633.42,-102.85 2642.48,-102.13 2651.01,-101.44"/>
<polygon fill="black" stroke="black" points="2651.37,-104.92 2661.06,-100.63 2650.81,-97.94 2651.37,-104.92"/>
</g>
<!-- 140404045670416+ -->
<g id="node2" class="node">
<title>140404045670416+</title>
<ellipse fill="none" stroke="black" cx="1940" cy="-126.5" rx="27" ry="18"/>
<text text-anchor="middle" x="1940" y="-122.8" font-family="Times,serif" font-size="14.00">+</text>
</g>
<!-- 140404045670416+&#45;&gt;140404045670416 -->
<g id="edge1" class="edge">
<title>140404045670416+&#45;&gt;140404045670416</title>
<path fill="none" stroke="black" d="M1967,-126.5C2017.46,-126.5 2131.06,-126.5 2214.81,-126.5"/>
<polygon fill="black" stroke="black" points="2214.87,-130 2224.87,-126.5 2214.87,-123 2214.87,-130"/>
</g>
<!-- 140404045669904 -->
<g id="node3" class="node">
<title>140404045669904</title>
<polygon fill="none" stroke="black" points="1382,-81.5 1382,-117.5 1564,-117.5 1564,-81.5 1382,-81.5"/>
<text text-anchor="middle" x="1392" y="-95.8" font-family="Times,serif" font-size="14.00"> </text>
<polyline fill="none" stroke="black" points="1402,-81.5 1402,-117.5 "/>
<text text-anchor="middle" x="1442" y="-95.8" font-family="Times,serif" font-size="14.00">data 1.7627</text>
<polyline fill="none" stroke="black" points="1482,-81.5 1482,-117.5 "/>
<text text-anchor="middle" x="1523" y="-95.8" font-family="Times,serif" font-size="14.00">grad 0.2500</text>
</g>
<!-- 140404045670096exp -->
<g id="node17" class="node">
<title>140404045670096exp</title>
<ellipse fill="none" stroke="black" cx="1627" cy="-99.5" rx="27" ry="18"/>
<text text-anchor="middle" x="1627" y="-95.8" font-family="Times,serif" font-size="14.00">exp</text>
</g>
<!-- 140404045669904&#45;&gt;140404045670096exp -->
<g id="edge17" class="edge">
<title>140404045669904&#45;&gt;140404045670096exp</title>
<path fill="none" stroke="black" d="M1564.18,-99.5C1573.14,-99.5 1581.83,-99.5 1589.73,-99.5"/>
<polygon fill="black" stroke="black" points="1589.96,-103 1599.96,-99.5 1589.96,-96 1589.96,-103"/>
</g>
<!-- 140404045669904* -->
<g id="node4" class="node">
<title>140404045669904*</title>
<ellipse fill="none" stroke="black" cx="1319" cy="-99.5" rx="27" ry="18"/>
<text text-anchor="middle" x="1319" y="-95.8" font-family="Times,serif" font-size="14.00">*</text>
</g>
<!-- 140404045669904*&#45;&gt;140404045669904 -->
<g id="edge2" class="edge">
<title>140404045669904*&#45;&gt;140404045669904</title>
<path fill="none" stroke="black" d="M1346.13,-99.5C1353.67,-99.5 1362.39,-99.5 1371.64,-99.5"/>
<polygon fill="black" stroke="black" points="1371.87,-103 1381.87,-99.5 1371.87,-96 1371.87,-103"/>
</g>
<!-- 140404045663760 -->
<g id="node5" class="node">
<title>140404045663760</title>
<polygon fill="none" stroke="black" points="4,-55.5 4,-91.5 196,-91.5 196,-55.5 4,-55.5"/>
<text text-anchor="middle" x="19" y="-69.8" font-family="Times,serif" font-size="14.00">x2</text>
<polyline fill="none" stroke="black" points="34,-55.5 34,-91.5 "/>
<text text-anchor="middle" x="74" y="-69.8" font-family="Times,serif" font-size="14.00">data 0.0000</text>
<polyline fill="none" stroke="black" points="114,-55.5 114,-91.5 "/>
<text text-anchor="middle" x="155" y="-69.8" font-family="Times,serif" font-size="14.00">grad 0.5000</text>
</g>
<!-- 140404045669008* -->
<g id="node15" class="node">
<title>140404045669008*</title>
<ellipse fill="none" stroke="black" cx="263" cy="-73.5" rx="27" ry="18"/>
<text text-anchor="middle" x="263" y="-69.8" font-family="Times,serif" font-size="14.00">*</text>
</g>
<!-- 140404045663760&#45;&gt;140404045669008* -->
<g id="edge24" class="edge">
<title>140404045663760&#45;&gt;140404045669008*</title>
<path fill="none" stroke="black" d="M196.05,-73.5C206.52,-73.5 216.65,-73.5 225.71,-73.5"/>
<polygon fill="black" stroke="black" points="225.79,-77 235.79,-73.5 225.79,-70 225.79,-77"/>
</g>
<!-- 140404045669840 -->
<g id="node6" class="node">
<title>140404045669840</title>
<polygon fill="none" stroke="black" points="1072.5,-109.5 1072.5,-145.5 1254.5,-145.5 1254.5,-109.5 1072.5,-109.5"/>
<text text-anchor="middle" x="1082.5" y="-123.8" font-family="Times,serif" font-size="14.00"> </text>
<polyline fill="none" stroke="black" points="1092.5,-109.5 1092.5,-145.5 "/>
<text text-anchor="middle" x="1132.5" y="-123.8" font-family="Times,serif" font-size="14.00">data 2.0000</text>
<polyline fill="none" stroke="black" points="1172.5,-109.5 1172.5,-145.5 "/>
<text text-anchor="middle" x="1213.5" y="-123.8" font-family="Times,serif" font-size="14.00">grad 0.2203</text>
</g>
<!-- 140404045669840&#45;&gt;140404045669904* -->
<g id="edge21" class="edge">
<title>140404045669840&#45;&gt;140404045669904*</title>
<path fill="none" stroke="black" d="M1254.68,-111.05C1264.61,-109.24 1274.23,-107.48 1282.84,-105.91"/>
<polygon fill="black" stroke="black" points="1283.6,-109.33 1292.81,-104.09 1282.35,-102.45 1283.6,-109.33"/>
</g>
<!-- 140404045663824 -->
<g id="node7" class="node">
<title>140404045663824</title>
<polygon fill="none" stroke="black" points="2,-165.5 2,-201.5 198,-201.5 198,-165.5 2,-165.5"/>
<text text-anchor="middle" x="17" y="-179.8" font-family="Times,serif" font-size="14.00">x1</text>
<polyline fill="none" stroke="black" points="32,-165.5 32,-201.5 "/>
<text text-anchor="middle" x="72" y="-179.8" font-family="Times,serif" font-size="14.00">data 2.0000</text>
<polyline fill="none" stroke="black" points="112,-165.5 112,-201.5 "/>
<text text-anchor="middle" x="155" y="-179.8" font-family="Times,serif" font-size="14.00">grad &#45;1.5000</text>
</g>
<!-- 140404045668496* -->
<g id="node13" class="node">
<title>140404045668496*</title>
<ellipse fill="none" stroke="black" cx="263" cy="-128.5" rx="27" ry="18"/>
<text text-anchor="middle" x="263" y="-124.8" font-family="Times,serif" font-size="14.00">*</text>
</g>
<!-- 140404045663824&#45;&gt;140404045668496* -->
<g id="edge12" class="edge">
<title>140404045663824&#45;&gt;140404045668496*</title>
<path fill="none" stroke="black" d="M172.53,-165.44C181.84,-162.67 191.2,-159.67 200,-156.5 210.53,-152.71 221.75,-147.9 231.72,-143.33"/>
<polygon fill="black" stroke="black" points="233.25,-146.48 240.82,-139.07 230.28,-140.14 233.25,-146.48"/>
</g>
<!-- 140404045670992 -->
<g id="node8" class="node">
<title>140404045670992</title>
<polygon fill="none" stroke="black" points="2443,-57.5 2443,-93.5 2625,-93.5 2625,-57.5 2443,-57.5"/>
<text text-anchor="middle" x="2453" y="-71.8" font-family="Times,serif" font-size="14.00"> </text>
<polyline fill="none" stroke="black" points="2463,-57.5 2463,-93.5 "/>
<text text-anchor="middle" x="2503" y="-71.8" font-family="Times,serif" font-size="14.00">data 0.1464</text>
<polyline fill="none" stroke="black" points="2543,-57.5 2543,-93.5 "/>
<text text-anchor="middle" x="2584" y="-71.8" font-family="Times,serif" font-size="14.00">grad 4.8284</text>
</g>
<!-- 140404045670992&#45;&gt;140404045524432* -->
<g id="edge22" class="edge">
<title>140404045670992&#45;&gt;140404045524432*</title>
<path fill="none" stroke="black" d="M2625.18,-89.15C2634.42,-90.54 2643.38,-91.9 2651.47,-93.12"/>
<polygon fill="black" stroke="black" points="2651.15,-96.61 2661.56,-94.65 2652.19,-89.69 2651.15,-96.61"/>
</g>
<!-- 140404045670992**&#45;1 -->
<g id="node9" class="node">
<title>140404045670992**&#45;1</title>
<ellipse fill="none" stroke="black" cx="2316" cy="-71.5" rx="27" ry="18"/>
<text text-anchor="middle" x="2316" y="-67.8" font-family="Times,serif" font-size="14.00">**&#45;1</text>
</g>
<!-- 140404045670992**&#45;1&#45;&gt;140404045670992 -->
<g id="edge3" class="edge">
<title>140404045670992**&#45;1&#45;&gt;140404045670992</title>
<path fill="none" stroke="black" d="M2343.05,-71.98C2365.53,-72.4 2399.48,-73.03 2432.5,-73.64"/>
<polygon fill="black" stroke="black" points="2432.64,-77.14 2442.7,-73.83 2432.77,-70.14 2432.64,-77.14"/>
</g>
<!-- 140404045669520 -->
<g id="node10" class="node">
<title>140404045669520</title>
<polygon fill="none" stroke="black" points="1071,-54.5 1071,-90.5 1256,-90.5 1256,-54.5 1071,-54.5"/>
<text text-anchor="middle" x="1082.5" y="-68.8" font-family="Times,serif" font-size="14.00">n</text>
<polyline fill="none" stroke="black" points="1094,-54.5 1094,-90.5 "/>
<text text-anchor="middle" x="1134" y="-68.8" font-family="Times,serif" font-size="14.00">data 0.8814</text>
<polyline fill="none" stroke="black" points="1174,-54.5 1174,-90.5 "/>
<text text-anchor="middle" x="1215" y="-68.8" font-family="Times,serif" font-size="14.00">grad 0.5000</text>
</g>
<!-- 140404045669520&#45;&gt;140404045669904* -->
<g id="edge15" class="edge">
<title>140404045669520&#45;&gt;140404045669904*</title>
<path fill="none" stroke="black" d="M1256.01,-88.6C1265.49,-90.26 1274.66,-91.88 1282.9,-93.33"/>
<polygon fill="black" stroke="black" points="1282.36,-96.78 1292.81,-95.07 1283.57,-89.89 1282.36,-96.78"/>
</g>
<!-- 140404045669520+ -->
<g id="node11" class="node">
<title>140404045669520+</title>
<ellipse fill="none" stroke="black" cx="1008" cy="-72.5" rx="27" ry="18"/>
<text text-anchor="middle" x="1008" y="-68.8" font-family="Times,serif" font-size="14.00">+</text>
</g>
<!-- 140404045669520+&#45;&gt;140404045669520 -->
<g id="edge4" class="edge">
<title>140404045669520+&#45;&gt;140404045669520</title>
<path fill="none" stroke="black" d="M1035.04,-72.5C1042.58,-72.5 1051.3,-72.5 1060.57,-72.5"/>
<polygon fill="black" stroke="black" points="1060.81,-76 1070.81,-72.5 1060.81,-69 1060.81,-76"/>
</g>
<!-- 140404045668496 -->
<g id="node12" class="node">
<title>140404045668496</title>
<polygon fill="none" stroke="black" points="326,-110.5 326,-146.5 546,-146.5 546,-110.5 326,-110.5"/>
<text text-anchor="middle" x="352.5" y="-124.8" font-family="Times,serif" font-size="14.00">x1*w1</text>
<polyline fill="none" stroke="black" points="379,-110.5 379,-146.5 "/>
<text text-anchor="middle" x="421.5" y="-124.8" font-family="Times,serif" font-size="14.00">data &#45;6.0000</text>
<polyline fill="none" stroke="black" points="464,-110.5 464,-146.5 "/>
<text text-anchor="middle" x="505" y="-124.8" font-family="Times,serif" font-size="14.00">grad 0.5000</text>
</g>
<!-- 140404045669264+ -->
<g id="node19" class="node">
<title>140404045669264+</title>
<ellipse fill="none" stroke="black" cx="609" cy="-100.5" rx="27" ry="18"/>
<text text-anchor="middle" x="609" y="-96.8" font-family="Times,serif" font-size="14.00">+</text>
</g>
<!-- 140404045668496&#45;&gt;140404045669264+ -->
<g id="edge13" class="edge">
<title>140404045668496&#45;&gt;140404045669264+</title>
<path fill="none" stroke="black" d="M546.27,-110.61C555.64,-109.07 564.6,-107.61 572.65,-106.29"/>
<polygon fill="black" stroke="black" points="573.35,-109.72 582.65,-104.65 572.22,-102.81 573.35,-109.72"/>
</g>
<!-- 140404045668496*&#45;&gt;140404045668496 -->
<g id="edge5" class="edge">
<title>140404045668496*&#45;&gt;140404045668496</title>
<path fill="none" stroke="black" d="M290.34,-128.5C297.77,-128.5 306.37,-128.5 315.6,-128.5"/>
<polygon fill="black" stroke="black" points="315.84,-132 325.84,-128.5 315.84,-125 315.84,-132"/>
</g>
<!-- 140404045669008 -->
<g id="node14" class="node">
<title>140404045669008</title>
<polygon fill="none" stroke="black" points="328.5,-55.5 328.5,-91.5 543.5,-91.5 543.5,-55.5 328.5,-55.5"/>
<text text-anchor="middle" x="355" y="-69.8" font-family="Times,serif" font-size="14.00">x2*w2</text>
<polyline fill="none" stroke="black" points="381.5,-55.5 381.5,-91.5 "/>
<text text-anchor="middle" x="421.5" y="-69.8" font-family="Times,serif" font-size="14.00">data 0.0000</text>
<polyline fill="none" stroke="black" points="461.5,-55.5 461.5,-91.5 "/>
<text text-anchor="middle" x="502.5" y="-69.8" font-family="Times,serif" font-size="14.00">grad 0.5000</text>
</g>
<!-- 140404045669008&#45;&gt;140404045669264+ -->
<g id="edge20" class="edge">
<title>140404045669008&#45;&gt;140404045669264+</title>
<path fill="none" stroke="black" d="M543.84,-90.37C554.01,-91.98 563.76,-93.51 572.44,-94.89"/>
<polygon fill="black" stroke="black" points="572.05,-98.37 582.47,-96.47 573.14,-91.45 572.05,-98.37"/>
</g>
<!-- 140404045669008*&#45;&gt;140404045669008 -->
<g id="edge6" class="edge">
<title>140404045669008*&#45;&gt;140404045669008</title>
<path fill="none" stroke="black" d="M290.34,-73.5C298.51,-73.5 308.08,-73.5 318.36,-73.5"/>
<polygon fill="black" stroke="black" points="318.39,-77 328.39,-73.5 318.39,-70 318.39,-77"/>
</g>
<!-- 140404045670096 -->
<g id="node16" class="node">
<title>140404045670096</title>
<polygon fill="none" stroke="black" points="1692.5,-81.5 1692.5,-117.5 1874.5,-117.5 1874.5,-81.5 1692.5,-81.5"/>
<text text-anchor="middle" x="1702.5" y="-95.8" font-family="Times,serif" font-size="14.00"> </text>
<polyline fill="none" stroke="black" points="1712.5,-81.5 1712.5,-117.5 "/>
<text text-anchor="middle" x="1752.5" y="-95.8" font-family="Times,serif" font-size="14.00">data 5.8284</text>
<polyline fill="none" stroke="black" points="1792.5,-81.5 1792.5,-117.5 "/>
<text text-anchor="middle" x="1833.5" y="-95.8" font-family="Times,serif" font-size="14.00">grad 0.0429</text>
</g>
<!-- 140404045670096&#45;&gt;140404045670416+ -->
<g id="edge11" class="edge">
<title>140404045670096&#45;&gt;140404045670416+</title>
<path fill="none" stroke="black" d="M1874.82,-115.28C1885.07,-117.08 1895.01,-118.81 1903.88,-120.36"/>
<polygon fill="black" stroke="black" points="1903.3,-123.81 1913.75,-122.09 1904.5,-116.92 1903.3,-123.81"/>
</g>
<!-- 140404045670736+ -->
<g id="node25" class="node">
<title>140404045670736+</title>
<ellipse fill="none" stroke="black" cx="1940" cy="-71.5" rx="27" ry="18"/>
<text text-anchor="middle" x="1940" y="-67.8" font-family="Times,serif" font-size="14.00">+</text>
</g>
<!-- 140404045670096&#45;&gt;140404045670736+ -->
<g id="edge14" class="edge">
<title>140404045670096&#45;&gt;140404045670736+</title>
<path fill="none" stroke="black" d="M1874.82,-83.13C1885.07,-81.27 1895.01,-79.47 1903.88,-77.87"/>
<polygon fill="black" stroke="black" points="1904.54,-81.3 1913.75,-76.08 1903.29,-74.42 1904.54,-81.3"/>
</g>
<!-- 140404045670096exp&#45;&gt;140404045670096 -->
<g id="edge7" class="edge">
<title>140404045670096exp&#45;&gt;140404045670096</title>
<path fill="none" stroke="black" d="M1654.21,-99.5C1662.34,-99.5 1671.85,-99.5 1681.94,-99.5"/>
<polygon fill="black" stroke="black" points="1682.19,-103 1692.19,-99.5 1682.19,-96 1682.19,-103"/>
</g>
<!-- 140404045669264 -->
<g id="node18" class="node">
<title>140404045669264</title>
<polygon fill="none" stroke="black" points="672,-82.5 672,-118.5 945,-118.5 945,-82.5 672,-82.5"/>
<text text-anchor="middle" x="725" y="-96.8" font-family="Times,serif" font-size="14.00">x1*w1 + x2*w2</text>
<polyline fill="none" stroke="black" points="778,-82.5 778,-118.5 "/>
<text text-anchor="middle" x="820.5" y="-96.8" font-family="Times,serif" font-size="14.00">data &#45;6.0000</text>
<polyline fill="none" stroke="black" points="863,-82.5 863,-118.5 "/>
<text text-anchor="middle" x="904" y="-96.8" font-family="Times,serif" font-size="14.00">grad 0.5000</text>
</g>
<!-- 140404045669264&#45;&gt;140404045669520+ -->
<g id="edge28" class="edge">
<title>140404045669264&#45;&gt;140404045669520+</title>
<path fill="none" stroke="black" d="M936.53,-82.49C949.09,-80.71 960.99,-79.02 971.3,-77.56"/>
<polygon fill="black" stroke="black" points="972.03,-80.99 981.44,-76.12 971.05,-74.06 972.03,-80.99"/>
</g>
<!-- 140404045669264+&#45;&gt;140404045669264 -->
<g id="edge8" class="edge">
<title>140404045669264+&#45;&gt;140404045669264</title>
<path fill="none" stroke="black" d="M636.23,-100.5C643.7,-100.5 652.41,-100.5 661.87,-100.5"/>
<polygon fill="black" stroke="black" points="661.98,-104 671.98,-100.5 661.98,-97 661.98,-104"/>
</g>
<!-- 140404045664208 -->
<g id="node20" class="node">
<title>140404045664208</title>
<polygon fill="none" stroke="black" points="0,-110.5 0,-146.5 200,-146.5 200,-110.5 0,-110.5"/>
<text text-anchor="middle" x="16.5" y="-124.8" font-family="Times,serif" font-size="14.00">w1</text>
<polyline fill="none" stroke="black" points="33,-110.5 33,-146.5 "/>
<text text-anchor="middle" x="75.5" y="-124.8" font-family="Times,serif" font-size="14.00">data &#45;3.0000</text>
<polyline fill="none" stroke="black" points="118,-110.5 118,-146.5 "/>
<text text-anchor="middle" x="159" y="-124.8" font-family="Times,serif" font-size="14.00">grad 1.0000</text>
</g>
<!-- 140404045664208&#45;&gt;140404045668496* -->
<g id="edge18" class="edge">
<title>140404045664208&#45;&gt;140404045668496*</title>
<path fill="none" stroke="black" d="M200.21,-128.5C209.2,-128.5 217.86,-128.5 225.7,-128.5"/>
<polygon fill="black" stroke="black" points="225.85,-132 235.85,-128.5 225.85,-125 225.85,-132"/>
</g>
<!-- 140404045668624 -->
<g id="node21" class="node">
<title>140404045668624</title>
<polygon fill="none" stroke="black" points="716,-27.5 716,-63.5 901,-63.5 901,-27.5 716,-27.5"/>
<text text-anchor="middle" x="727.5" y="-41.8" font-family="Times,serif" font-size="14.00">b</text>
<polyline fill="none" stroke="black" points="739,-27.5 739,-63.5 "/>
<text text-anchor="middle" x="779" y="-41.8" font-family="Times,serif" font-size="14.00">data 6.8814</text>
<polyline fill="none" stroke="black" points="819,-27.5 819,-63.5 "/>
<text text-anchor="middle" x="860" y="-41.8" font-family="Times,serif" font-size="14.00">grad 0.5000</text>
</g>
<!-- 140404045668624&#45;&gt;140404045669520+ -->
<g id="edge16" class="edge">
<title>140404045668624&#45;&gt;140404045669520+</title>
<path fill="none" stroke="black" d="M901.02,-58.01C926,-61.43 951.59,-64.93 971.37,-67.63"/>
<polygon fill="black" stroke="black" points="971.05,-71.12 981.43,-69.01 972,-64.18 971.05,-71.12"/>
</g>
<!-- 140404045670672 -->
<g id="node22" class="node">
<title>140404045670672</title>
<polygon fill="none" stroke="black" points="1690.5,-26.5 1690.5,-62.5 1876.5,-62.5 1876.5,-26.5 1690.5,-26.5"/>
<text text-anchor="middle" x="1700.5" y="-40.8" font-family="Times,serif" font-size="14.00"> </text>
<polyline fill="none" stroke="black" points="1710.5,-26.5 1710.5,-62.5 "/>
<text text-anchor="middle" x="1750.5" y="-40.8" font-family="Times,serif" font-size="14.00">data 1.0000</text>
<polyline fill="none" stroke="black" points="1790.5,-26.5 1790.5,-62.5 "/>
<text text-anchor="middle" x="1833.5" y="-40.8" font-family="Times,serif" font-size="14.00">grad &#45;0.1036</text>
</g>
<!-- 140404045670672&#45;&gt;140404045670736+ -->
<g id="edge26" class="edge">
<title>140404045670672&#45;&gt;140404045670736+</title>
<path fill="none" stroke="black" d="M1876.6,-60.6C1886.15,-62.26 1895.37,-63.88 1903.68,-65.33"/>
<polygon fill="black" stroke="black" points="1903.2,-68.8 1913.65,-67.07 1904.4,-61.9 1903.2,-68.8"/>
</g>
<!-- 140404045664080 -->
<g id="node23" class="node">
<title>140404045664080</title>
<polygon fill="none" stroke="black" points="2.5,-0.5 2.5,-36.5 197.5,-36.5 197.5,-0.5 2.5,-0.5"/>
<text text-anchor="middle" x="19" y="-14.8" font-family="Times,serif" font-size="14.00">w2</text>
<polyline fill="none" stroke="black" points="35.5,-0.5 35.5,-36.5 "/>
<text text-anchor="middle" x="75.5" y="-14.8" font-family="Times,serif" font-size="14.00">data 1.0000</text>
<polyline fill="none" stroke="black" points="115.5,-0.5 115.5,-36.5 "/>
<text text-anchor="middle" x="156.5" y="-14.8" font-family="Times,serif" font-size="14.00">grad 0.0000</text>
</g>
<!-- 140404045664080&#45;&gt;140404045669008* -->
<g id="edge19" class="edge">
<title>140404045664080&#45;&gt;140404045669008*</title>
<path fill="none" stroke="black" d="M172.53,-36.56C181.84,-39.33 191.2,-42.33 200,-45.5 210.53,-49.29 221.75,-54.1 231.72,-58.67"/>
<polygon fill="black" stroke="black" points="230.28,-61.86 240.82,-62.93 233.25,-55.52 230.28,-61.86"/>
</g>
<!-- 140404045670736 -->
<g id="node24" class="node">
<title>140404045670736</title>
<polygon fill="none" stroke="black" points="2003,-53.5 2003,-89.5 2189,-89.5 2189,-53.5 2003,-53.5"/>
<text text-anchor="middle" x="2013" y="-67.8" font-family="Times,serif" font-size="14.00"> </text>
<polyline fill="none" stroke="black" points="2023,-53.5 2023,-89.5 "/>
<text text-anchor="middle" x="2063" y="-67.8" font-family="Times,serif" font-size="14.00">data 6.8284</text>
<polyline fill="none" stroke="black" points="2103,-53.5 2103,-89.5 "/>
<text text-anchor="middle" x="2146" y="-67.8" font-family="Times,serif" font-size="14.00">grad &#45;0.1036</text>
</g>
<!-- 140404045670736&#45;&gt;140404045670992**&#45;1 -->
<g id="edge25" class="edge">
<title>140404045670736&#45;&gt;140404045670992**&#45;1</title>
<path fill="none" stroke="black" d="M2189.14,-71.5C2220.72,-71.5 2254.24,-71.5 2278.74,-71.5"/>
<polygon fill="black" stroke="black" points="2278.98,-75 2288.98,-71.5 2278.98,-68 2278.98,-75"/>
</g>
<!-- 140404045670736+&#45;&gt;140404045670736 -->
<g id="edge9" class="edge">
<title>140404045670736+&#45;&gt;140404045670736</title>
<path fill="none" stroke="black" d="M1967.12,-71.5C1974.62,-71.5 1983.29,-71.5 1992.5,-71.5"/>
<polygon fill="black" stroke="black" points="1992.69,-75 2002.69,-71.5 1992.69,-68 1992.69,-75"/>
</g>
<!-- 140404045670288 -->
<g id="node26" class="node">
<title>140404045670288</title>
<polygon fill="none" stroke="black" points="1690,-136.5 1690,-172.5 1877,-172.5 1877,-136.5 1690,-136.5"/>
<text text-anchor="middle" x="1700" y="-150.8" font-family="Times,serif" font-size="14.00"> </text>
<polyline fill="none" stroke="black" points="1710,-136.5 1710,-172.5 "/>
<text text-anchor="middle" x="1752.5" y="-150.8" font-family="Times,serif" font-size="14.00">data &#45;1.0000</text>
<polyline fill="none" stroke="black" points="1795,-136.5 1795,-172.5 "/>
<text text-anchor="middle" x="1836" y="-150.8" font-family="Times,serif" font-size="14.00">grad 0.1464</text>
</g>
<!-- 140404045670288&#45;&gt;140404045670416+ -->
<g id="edge23" class="edge">
<title>140404045670288&#45;&gt;140404045670416+</title>
<path fill="none" stroke="black" d="M1877.05,-137.73C1886.54,-136.01 1895.71,-134.35 1903.95,-132.85"/>
<polygon fill="black" stroke="black" points="1904.64,-136.28 1913.85,-131.06 1903.39,-129.4 1904.64,-136.28"/>
</g>
<!-- 140404045524432 -->
<g id="node27" class="node">
<title>140404045524432</title>
<polygon fill="none" stroke="black" points="2751,-80.5 2751,-116.5 2936,-116.5 2936,-80.5 2751,-80.5"/>
<text text-anchor="middle" x="2762.5" y="-94.8" font-family="Times,serif" font-size="14.00">o</text>
<polyline fill="none" stroke="black" points="2774,-80.5 2774,-116.5 "/>
<text text-anchor="middle" x="2814" y="-94.8" font-family="Times,serif" font-size="14.00">data 0.7071</text>
<polyline fill="none" stroke="black" points="2854,-80.5 2854,-116.5 "/>
<text text-anchor="middle" x="2895" y="-94.8" font-family="Times,serif" font-size="14.00">grad 1.0000</text>
</g>
<!-- 140404045524432*&#45;&gt;140404045524432 -->
<g id="edge10" class="edge">
<title>140404045524432*&#45;&gt;140404045524432</title>
<path fill="none" stroke="black" d="M2715.04,-98.5C2722.58,-98.5 2731.3,-98.5 2740.57,-98.5"/>
<polygon fill="black" stroke="black" points="2740.81,-102 2750.81,-98.5 2740.81,-95 2740.81,-102"/>
</g>
</g>
</svg>
