<?xml version="1.0" encoding="UTF-8" standalone="no"?>
<!DOCTYPE svg PUBLIC "-//W3C//DTD SVG 1.1//EN"
 "http://www.w3.org/Graphics/SVG/1.1/DTD/svg11.dtd">
<!-- Generated by graphviz version 3.0.0 (0)
 -->
<!-- Pages: 1 -->
<svg width="1148pt" height="154pt"
 viewBox="0.00 0.00 1148.00 154.00" xmlns="http://www.w3.org/2000/svg" xmlns:xlink="http://www.w3.org/1999/xlink">
<g id="graph0" class="graph" transform="scale(1 1) rotate(0) translate(4 150)">
<polygon fill="white" stroke="transparent" points="-4,4 -4,-150 1144,-150 1144,4 -4,4"/>
<!-- 140404042343440 -->
<g id="node1" class="node">
<title>140404042343440</title>
<polygon fill="none" stroke="black" points="317,-27.5 317,-63.5 507,-63.5 507,-27.5 317,-27.5"/>
<text text-anchor="middle" x="328.5" y="-41.8" font-family="Times,serif" font-size="14.00">e</text>
<polyline fill="none" stroke="black" points="340,-27.5 340,-63.5 "/>
<text text-anchor="middle" x="382.5" y="-41.8" font-family="Times,serif" font-size="14.00">data &#45;6.0000</text>
<polyline fill="none" stroke="black" points="425,-27.5 425,-63.5 "/>
<text text-anchor="middle" x="466" y="-41.8" font-family="Times,serif" font-size="14.00">grad 0.0000</text>
</g>
<!-- 140404042343568+ -->
<g id="node6" class="node">
<title>140404042343568+</title>
<ellipse fill="none" stroke="black" cx="571" cy="-72.5" rx="27" ry="18"/>
<text text-anchor="middle" x="571" y="-68.8" font-family="Times,serif" font-size="14.00">+</text>
</g>
<!-- 140404042343440&#45;&gt;140404042343568+ -->
<g id="edge7" class="edge">
<title>140404042343440&#45;&gt;140404042343568+</title>
<path fill="none" stroke="black" d="M507.05,-61.67C516.78,-63.35 526.18,-64.96 534.62,-66.42"/>
<polygon fill="black" stroke="black" points="534.3,-69.91 544.75,-68.16 535.49,-63.01 534.3,-69.91"/>
</g>
<!-- 140404042343440* -->
<g id="node2" class="node">
<title>140404042343440*</title>
<ellipse fill="none" stroke="black" cx="253" cy="-45.5" rx="27" ry="18"/>
<text text-anchor="middle" x="253" y="-41.8" font-family="Times,serif" font-size="14.00">*</text>
</g>
<!-- 140404042343440*&#45;&gt;140404042343440 -->
<g id="edge1" class="edge">
<title>140404042343440*&#45;&gt;140404042343440</title>
<path fill="none" stroke="black" d="M280.28,-45.5C288.05,-45.5 297.08,-45.5 306.68,-45.5"/>
<polygon fill="black" stroke="black" points="306.88,-49 316.88,-45.5 306.88,-42 306.88,-49"/>
</g>
<!-- 140404042343504 -->
<g id="node3" class="node">
<title>140404042343504</title>
<polygon fill="none" stroke="black" points="948,-81.5 948,-117.5 1140,-117.5 1140,-81.5 948,-81.5"/>
<text text-anchor="middle" x="960.5" y="-95.8" font-family="Times,serif" font-size="14.00">L</text>
<polyline fill="none" stroke="black" points="973,-81.5 973,-117.5 "/>
<text text-anchor="middle" x="1015.5" y="-95.8" font-family="Times,serif" font-size="14.00">data &#45;8.0000</text>
<polyline fill="none" stroke="black" points="1058,-81.5 1058,-117.5 "/>
<text text-anchor="middle" x="1099" y="-95.8" font-family="Times,serif" font-size="14.00">grad 0.0000</text>
</g>
<!-- 140404042343504* -->
<g id="node4" class="node">
<title>140404042343504*</title>
<ellipse fill="none" stroke="black" cx="885" cy="-99.5" rx="27" ry="18"/>
<text text-anchor="middle" x="885" y="-95.8" font-family="Times,serif" font-size="14.00">*</text>
</g>
<!-- 140404042343504*&#45;&gt;140404042343504 -->
<g id="edge2" class="edge">
<title>140404042343504*&#45;&gt;140404042343504</title>
<path fill="none" stroke="black" d="M912.28,-99.5C919.78,-99.5 928.44,-99.5 937.67,-99.5"/>
<polygon fill="black" stroke="black" points="937.87,-103 947.87,-99.5 937.87,-96 937.87,-103"/>
</g>
<!-- 140404042343568 -->
<g id="node5" class="node">
<title>140404042343568</title>
<polygon fill="none" stroke="black" points="635.5,-54.5 635.5,-90.5 820.5,-90.5 820.5,-54.5 635.5,-54.5"/>
<text text-anchor="middle" x="647" y="-68.8" font-family="Times,serif" font-size="14.00">d</text>
<polyline fill="none" stroke="black" points="658.5,-54.5 658.5,-90.5 "/>
<text text-anchor="middle" x="698.5" y="-68.8" font-family="Times,serif" font-size="14.00">data 4.0000</text>
<polyline fill="none" stroke="black" points="738.5,-54.5 738.5,-90.5 "/>
<text text-anchor="middle" x="779.5" y="-68.8" font-family="Times,serif" font-size="14.00">grad 0.0000</text>
</g>
<!-- 140404042343568&#45;&gt;140404042343504* -->
<g id="edge9" class="edge">
<title>140404042343568&#45;&gt;140404042343504*</title>
<path fill="none" stroke="black" d="M820.51,-88.44C830.48,-90.18 840.13,-91.86 848.77,-93.36"/>
<polygon fill="black" stroke="black" points="848.31,-96.84 858.77,-95.1 849.52,-89.94 848.31,-96.84"/>
</g>
<!-- 140404042343568+&#45;&gt;140404042343568 -->
<g id="edge3" class="edge">
<title>140404042343568+&#45;&gt;140404042343568</title>
<path fill="none" stroke="black" d="M598.29,-72.5C606.26,-72.5 615.54,-72.5 625.39,-72.5"/>
<polygon fill="black" stroke="black" points="625.41,-76 635.41,-72.5 625.41,-69 625.41,-76"/>
</g>
<!-- 140404042343120 -->
<g id="node7" class="node">
<title>140404042343120</title>
<polygon fill="none" stroke="black" points="0,-55.5 0,-91.5 190,-91.5 190,-55.5 0,-55.5"/>
<text text-anchor="middle" x="11.5" y="-69.8" font-family="Times,serif" font-size="14.00">b</text>
<polyline fill="none" stroke="black" points="23,-55.5 23,-91.5 "/>
<text text-anchor="middle" x="65.5" y="-69.8" font-family="Times,serif" font-size="14.00">data &#45;3.0000</text>
<polyline fill="none" stroke="black" points="108,-55.5 108,-91.5 "/>
<text text-anchor="middle" x="149" y="-69.8" font-family="Times,serif" font-size="14.00">grad 0.0000</text>
</g>
<!-- 140404042343120&#45;&gt;140404042343440* -->
<g id="edge4" class="edge">
<title>140404042343120&#45;&gt;140404042343440*</title>
<path fill="none" stroke="black" d="M190.34,-56.57C199.62,-54.9 208.58,-53.29 216.66,-51.84"/>
<polygon fill="black" stroke="black" points="217.49,-55.25 226.72,-50.04 216.26,-48.36 217.49,-55.25"/>
</g>
<!-- 140404042343184 -->
<g id="node8" class="node">
<title>140404042343184</title>
<polygon fill="none" stroke="black" points="2.5,-0.5 2.5,-36.5 187.5,-36.5 187.5,-0.5 2.5,-0.5"/>
<text text-anchor="middle" x="14" y="-14.8" font-family="Times,serif" font-size="14.00">a</text>
<polyline fill="none" stroke="black" points="25.5,-0.5 25.5,-36.5 "/>
<text text-anchor="middle" x="65.5" y="-14.8" font-family="Times,serif" font-size="14.00">data 2.0000</text>
<polyline fill="none" stroke="black" points="105.5,-0.5 105.5,-36.5 "/>
<text text-anchor="middle" x="146.5" y="-14.8" font-family="Times,serif" font-size="14.00">grad 0.0000</text>
</g>
<!-- 140404042343184&#45;&gt;140404042343440* -->
<g id="edge6" class="edge">
<title>140404042343184&#45;&gt;140404042343440*</title>
<path fill="none" stroke="black" d="M187.65,-34.36C197.94,-36.14 207.91,-37.87 216.81,-39.41"/>
<polygon fill="black" stroke="black" points="216.26,-42.87 226.71,-41.12 217.45,-35.97 216.26,-42.87"/>
</g>
<!-- 140404042343248 -->
<g id="node9" class="node">
<title>140404042343248</title>
<polygon fill="none" stroke="black" points="634,-109.5 634,-145.5 822,-145.5 822,-109.5 634,-109.5"/>
<text text-anchor="middle" x="644.5" y="-123.8" font-family="Times,serif" font-size="14.00">f</text>
<polyline fill="none" stroke="black" points="655,-109.5 655,-145.5 "/>
<text text-anchor="middle" x="697.5" y="-123.8" font-family="Times,serif" font-size="14.00">data &#45;2.0000</text>
<polyline fill="none" stroke="black" points="740,-109.5 740,-145.5 "/>
<text text-anchor="middle" x="781" y="-123.8" font-family="Times,serif" font-size="14.00">grad 0.0000</text>
</g>
<!-- 140404042343248&#45;&gt;140404042343504* -->
<g id="edge8" class="edge">
<title>140404042343248&#45;&gt;140404042343504*</title>
<path fill="none" stroke="black" d="M822.29,-110.65C831.57,-108.97 840.52,-107.35 848.61,-105.89"/>
<polygon fill="black" stroke="black" points="849.46,-109.3 858.68,-104.07 848.21,-102.41 849.46,-109.3"/>
</g>
<!-- 140404036319184 -->
<g id="node10" class="node">
<title>140404036319184</title>
<polygon fill="none" stroke="black" points="316,-82.5 316,-118.5 508,-118.5 508,-82.5 316,-82.5"/>
<text text-anchor="middle" x="327.5" y="-96.8" font-family="Times,serif" font-size="14.00">c</text>
<polyline fill="none" stroke="black" points="339,-82.5 339,-118.5 "/>
<text text-anchor="middle" x="382.5" y="-96.8" font-family="Times,serif" font-size="14.00">data 10.0000</text>
<polyline fill="none" stroke="black" points="426,-82.5 426,-118.5 "/>
<text text-anchor="middle" x="467" y="-96.8" font-family="Times,serif" font-size="14.00">grad 0.0000</text>
</g>
<!-- 140404036319184&#45;&gt;140404042343568+ -->
<g id="edge5" class="edge">
<title>140404036319184&#45;&gt;140404042343568+</title>
<path fill="none" stroke="black" d="M508.4,-83.49C517.69,-81.83 526.64,-80.23 534.71,-78.79"/>
<polygon fill="black" stroke="black" points="535.53,-82.2 544.76,-77 534.31,-75.31 535.53,-82.2"/>
</g>
</g>
</svg>
