<?xml version="1.0" encoding="UTF-8" standalone="no"?>
<!DOCTYPE svg PUBLIC "-//W3C//DTD SVG 1.1//EN"
 "http://www.w3.org/Graphics/SVG/1.1/DTD/svg11.dtd">
<!-- Generated by graphviz version 3.0.0 (0)
 -->
<!-- Pages: 1 -->
<svg width="820pt" height="156pt"
 viewBox="0.00 0.00 820.00 156.00" xmlns="http://www.w3.org/2000/svg" xmlns:xlink="http://www.w3.org/1999/xlink">
<g id="graph0" class="graph" transform="scale(1 1) rotate(0) translate(4 152)">
<polygon fill="white" stroke="transparent" points="-4,4 -4,-152 816,-152 816,4 -4,4"/>
<!-- 140404042251280 -->
<g id="node1" class="node">
<title>140404042251280</title>
<polygon fill="none" stroke="black" points="2.5,-111.5 2.5,-147.5 105.5,-147.5 105.5,-111.5 2.5,-111.5"/>
<text text-anchor="middle" x="14" y="-125.8" font-family="Times,serif" font-size="14.00">a</text>
<polyline fill="none" stroke="black" points="25.5,-111.5 25.5,-147.5 "/>
<text text-anchor="middle" x="65.5" y="-125.8" font-family="Times,serif" font-size="14.00">data 2.0000</text>
</g>
<!-- 140404042251536* -->
<g id="node6" class="node">
<title>140404042251536*</title>
<ellipse fill="none" stroke="black" cx="171" cy="-101.5" rx="27" ry="18"/>
<text text-anchor="middle" x="171" y="-97.8" font-family="Times,serif" font-size="14.00">*</text>
</g>
<!-- 140404042251280&#45;&gt;140404042251536* -->
<g id="edge7" class="edge">
<title>140404042251280&#45;&gt;140404042251536*</title>
<path fill="none" stroke="black" d="M105.78,-117.14C115.85,-114.68 126.2,-112.16 135.58,-109.88"/>
<polygon fill="black" stroke="black" points="136.41,-113.28 145.3,-107.51 134.76,-106.48 136.41,-113.28"/>
</g>
<!-- 140404042251344 -->
<g id="node2" class="node">
<title>140404042251344</title>
<polygon fill="none" stroke="black" points="234,-28.5 234,-64.5 344,-64.5 344,-28.5 234,-28.5"/>
<text text-anchor="middle" x="245.5" y="-42.8" font-family="Times,serif" font-size="14.00">c</text>
<polyline fill="none" stroke="black" points="257,-28.5 257,-64.5 "/>
<text text-anchor="middle" x="300.5" y="-42.8" font-family="Times,serif" font-size="14.00">data 10.0000</text>
</g>
<!-- 140404042251728+ -->
<g id="node10" class="node">
<title>140404042251728+</title>
<ellipse fill="none" stroke="black" cx="407" cy="-73.5" rx="27" ry="18"/>
<text text-anchor="middle" x="407" y="-69.8" font-family="Times,serif" font-size="14.00">+</text>
</g>
<!-- 140404042251344&#45;&gt;140404042251728+ -->
<g id="edge5" class="edge">
<title>140404042251344&#45;&gt;140404042251728+</title>
<path fill="none" stroke="black" d="M344.26,-59.13C353.49,-61.28 362.84,-63.45 371.37,-65.44"/>
<polygon fill="black" stroke="black" points="370.79,-68.9 381.32,-67.76 372.38,-62.08 370.79,-68.9"/>
</g>
<!-- 140404042251408 -->
<g id="node3" class="node">
<title>140404042251408</title>
<polygon fill="none" stroke="black" points="470,-0.5 470,-36.5 576,-36.5 576,-0.5 470,-0.5"/>
<text text-anchor="middle" x="480.5" y="-14.8" font-family="Times,serif" font-size="14.00">f</text>
<polyline fill="none" stroke="black" points="491,-0.5 491,-36.5 "/>
<text text-anchor="middle" x="533.5" y="-14.8" font-family="Times,serif" font-size="14.00">data &#45;2.0000</text>
</g>
<!-- 140404042251664* -->
<g id="node8" class="node">
<title>140404042251664*</title>
<ellipse fill="none" stroke="black" cx="639" cy="-45.5" rx="27" ry="18"/>
<text text-anchor="middle" x="639" y="-41.8" font-family="Times,serif" font-size="14.00">*</text>
</g>
<!-- 140404042251408&#45;&gt;140404042251664* -->
<g id="edge9" class="edge">
<title>140404042251408&#45;&gt;140404042251664*</title>
<path fill="none" stroke="black" d="M576.33,-30.89C585.48,-33.06 594.8,-35.27 603.33,-37.29"/>
<polygon fill="black" stroke="black" points="602.73,-40.74 613.27,-39.64 604.34,-33.93 602.73,-40.74"/>
</g>
<!-- 140404042251216 -->
<g id="node4" class="node">
<title>140404042251216</title>
<polygon fill="none" stroke="black" points="0,-56.5 0,-92.5 108,-92.5 108,-56.5 0,-56.5"/>
<text text-anchor="middle" x="11.5" y="-70.8" font-family="Times,serif" font-size="14.00">b</text>
<polyline fill="none" stroke="black" points="23,-56.5 23,-92.5 "/>
<text text-anchor="middle" x="65.5" y="-70.8" font-family="Times,serif" font-size="14.00">data &#45;3.0000</text>
</g>
<!-- 140404042251216&#45;&gt;140404042251536* -->
<g id="edge4" class="edge">
<title>140404042251216&#45;&gt;140404042251536*</title>
<path fill="none" stroke="black" d="M108.12,-86.97C117.33,-89.13 126.68,-91.33 135.24,-93.34"/>
<polygon fill="black" stroke="black" points="134.68,-96.8 145.21,-95.68 136.28,-89.99 134.68,-96.8"/>
</g>
<!-- 140404042251536 -->
<g id="node5" class="node">
<title>140404042251536</title>
<polygon fill="none" stroke="black" points="235,-83.5 235,-119.5 343,-119.5 343,-83.5 235,-83.5"/>
<text text-anchor="middle" x="246.5" y="-97.8" font-family="Times,serif" font-size="14.00">e</text>
<polyline fill="none" stroke="black" points="258,-83.5 258,-119.5 "/>
<text text-anchor="middle" x="300.5" y="-97.8" font-family="Times,serif" font-size="14.00">data &#45;6.0000</text>
</g>
<!-- 140404042251536&#45;&gt;140404042251728+ -->
<g id="edge6" class="edge">
<title>140404042251536&#45;&gt;140404042251728+</title>
<path fill="none" stroke="black" d="M343.25,-88.65C352.84,-86.33 362.6,-83.98 371.48,-81.83"/>
<polygon fill="black" stroke="black" points="372.54,-85.18 381.43,-79.43 370.89,-78.37 372.54,-85.18"/>
</g>
<!-- 140404042251536*&#45;&gt;140404042251536 -->
<g id="edge1" class="edge">
<title>140404042251536*&#45;&gt;140404042251536</title>
<path fill="none" stroke="black" d="M198.03,-101.5C206.08,-101.5 215.32,-101.5 224.74,-101.5"/>
<polygon fill="black" stroke="black" points="224.99,-105 234.99,-101.5 224.99,-98 224.99,-105"/>
</g>
<!-- 140404042251664 -->
<g id="node7" class="node">
<title>140404042251664</title>
<polygon fill="none" stroke="black" points="702,-27.5 702,-63.5 812,-63.5 812,-27.5 702,-27.5"/>
<text text-anchor="middle" x="714.5" y="-41.8" font-family="Times,serif" font-size="14.00">L</text>
<polyline fill="none" stroke="black" points="727,-27.5 727,-63.5 "/>
<text text-anchor="middle" x="769.5" y="-41.8" font-family="Times,serif" font-size="14.00">data &#45;8.0000</text>
</g>
<!-- 140404042251664*&#45;&gt;140404042251664 -->
<g id="edge2" class="edge">
<title>140404042251664*&#45;&gt;140404042251664</title>
<path fill="none" stroke="black" d="M666.03,-45.5C673.7,-45.5 682.45,-45.5 691.42,-45.5"/>
<polygon fill="black" stroke="black" points="691.58,-49 701.58,-45.5 691.58,-42 691.58,-49"/>
</g>
<!-- 140404042251728 -->
<g id="node9" class="node">
<title>140404042251728</title>
<polygon fill="none" stroke="black" points="471.5,-55.5 471.5,-91.5 574.5,-91.5 574.5,-55.5 471.5,-55.5"/>
<text text-anchor="middle" x="483" y="-69.8" font-family="Times,serif" font-size="14.00">d</text>
<polyline fill="none" stroke="black" points="494.5,-55.5 494.5,-91.5 "/>
<text text-anchor="middle" x="534.5" y="-69.8" font-family="Times,serif" font-size="14.00">data 4.0000</text>
</g>
<!-- 140404042251728&#45;&gt;140404042251664* -->
<g id="edge8" class="edge">
<title>140404042251728&#45;&gt;140404042251664*</title>
<path fill="none" stroke="black" d="M574.67,-61.06C584.43,-58.66 594.45,-56.2 603.55,-53.96"/>
<polygon fill="black" stroke="black" points="604.5,-57.33 613.37,-51.55 602.83,-50.54 604.5,-57.33"/>
</g>
<!-- 140404042251728+&#45;&gt;140404042251728 -->
<g id="edge3" class="edge">
<title>140404042251728+&#45;&gt;140404042251728</title>
<path fill="none" stroke="black" d="M434.15,-73.5C442.26,-73.5 451.57,-73.5 461.02,-73.5"/>
<polygon fill="black" stroke="black" points="461.28,-77 471.28,-73.5 461.28,-70 461.28,-77"/>
</g>
</g>
</svg>
