<?xml version="1.0" encoding="UTF-8" standalone="no"?>
<!DOCTYPE svg PUBLIC "-//W3C//DTD SVG 1.1//EN"
 "http://www.w3.org/Graphics/SVG/1.1/DTD/svg11.dtd">
<!-- Generated by graphviz version 3.0.0 (0)
 -->
<!-- Pages: 1 -->
<svg width="512pt" height="128pt"
 viewBox="0.00 0.00 512.00 128.00" xmlns="http://www.w3.org/2000/svg" xmlns:xlink="http://www.w3.org/1999/xlink">
<g id="graph0" class="graph" transform="scale(1 1) rotate(0) translate(4 124)">
<polygon fill="white" stroke="transparent" points="-4,4 -4,-124 508,-124 508,4 -4,4"/>
<!-- 140589337115728 -->
<g id="node1" class="node">
<title>140589337115728</title>
<polygon fill="none" stroke="black" points="2.5,-83.5 2.5,-119.5 82.5,-119.5 82.5,-83.5 2.5,-83.5"/>
<text text-anchor="middle" x="42.5" y="-97.8" font-family="Times,serif" font-size="14.00">data 2.0000</text>
</g>
<!-- 140589337116368* -->
<g id="node3" class="node">
<title>140589337116368*</title>
<ellipse fill="none" stroke="black" cx="148" cy="-73.5" rx="27" ry="18"/>
<text text-anchor="middle" x="148" y="-69.8" font-family="Times,serif" font-size="14.00">*</text>
</g>
<!-- 140589337115728&#45;&gt;140589337116368* -->
<g id="edge4" class="edge">
<title>140589337115728&#45;&gt;140589337116368*</title>
<path fill="none" stroke="black" d="M82.63,-90.91C92.66,-88.2 103.36,-85.31 113.09,-82.67"/>
<polygon fill="black" stroke="black" points="114.09,-86.03 122.83,-80.04 112.26,-79.27 114.09,-86.03"/>
</g>
<!-- 140589337116368 -->
<g id="node2" class="node">
<title>140589337116368</title>
<polygon fill="none" stroke="black" points="212,-55.5 212,-91.5 297,-91.5 297,-55.5 212,-55.5"/>
<text text-anchor="middle" x="254.5" y="-69.8" font-family="Times,serif" font-size="14.00">data &#45;6.0000</text>
</g>
<!-- 140589337113424+ -->
<g id="node7" class="node">
<title>140589337113424+</title>
<ellipse fill="none" stroke="black" cx="361" cy="-45.5" rx="27" ry="18"/>
<text text-anchor="middle" x="361" y="-41.8" font-family="Times,serif" font-size="14.00">+</text>
</g>
<!-- 140589337116368&#45;&gt;140589337113424+ -->
<g id="edge3" class="edge">
<title>140589337116368&#45;&gt;140589337113424+</title>
<path fill="none" stroke="black" d="M297.1,-62.35C306.61,-59.8 316.62,-57.12 325.78,-54.67"/>
<polygon fill="black" stroke="black" points="326.94,-57.98 335.69,-52.01 325.12,-51.22 326.94,-57.98"/>
</g>
<!-- 140589337116368*&#45;&gt;140589337116368 -->
<g id="edge1" class="edge">
<title>140589337116368*&#45;&gt;140589337116368</title>
<path fill="none" stroke="black" d="M175.1,-73.5C183.27,-73.5 192.59,-73.5 201.88,-73.5"/>
<polygon fill="black" stroke="black" points="201.89,-77 211.89,-73.5 201.89,-70 201.89,-77"/>
</g>
<!-- 140589337115984 -->
<g id="node4" class="node">
<title>140589337115984</title>
<polygon fill="none" stroke="black" points="0,-28.5 0,-64.5 85,-64.5 85,-28.5 0,-28.5"/>
<text text-anchor="middle" x="42.5" y="-42.8" font-family="Times,serif" font-size="14.00">data &#45;3.0000</text>
</g>
<!-- 140589337115984&#45;&gt;140589337116368* -->
<g id="edge5" class="edge">
<title>140589337115984&#45;&gt;140589337116368*</title>
<path fill="none" stroke="black" d="M85,-57.33C94.14,-59.71 103.72,-62.21 112.54,-64.51"/>
<polygon fill="black" stroke="black" points="111.91,-67.96 122.47,-67.1 113.68,-61.19 111.91,-67.96"/>
</g>
<!-- 140589337116496 -->
<g id="node5" class="node">
<title>140589337116496</title>
<polygon fill="none" stroke="black" points="211,-0.5 211,-36.5 298,-36.5 298,-0.5 211,-0.5"/>
<text text-anchor="middle" x="254.5" y="-14.8" font-family="Times,serif" font-size="14.00">data 10.0000</text>
</g>
<!-- 140589337116496&#45;&gt;140589337113424+ -->
<g id="edge6" class="edge">
<title>140589337116496&#45;&gt;140589337113424+</title>
<path fill="none" stroke="black" d="M298,-29.48C307.18,-31.85 316.78,-34.33 325.6,-36.61"/>
<polygon fill="black" stroke="black" points="324.97,-40.07 335.53,-39.18 326.73,-33.29 324.97,-40.07"/>
</g>
<!-- 140589337113424 -->
<g id="node6" class="node">
<title>140589337113424</title>
<polygon fill="none" stroke="black" points="424,-27.5 424,-63.5 504,-63.5 504,-27.5 424,-27.5"/>
<text text-anchor="middle" x="464" y="-41.8" font-family="Times,serif" font-size="14.00">data 4.0000</text>
</g>
<!-- 140589337113424+&#45;&gt;140589337113424 -->
<g id="edge2" class="edge">
<title>140589337113424+&#45;&gt;140589337113424</title>
<path fill="none" stroke="black" d="M388.01,-45.5C395.82,-45.5 404.67,-45.5 413.48,-45.5"/>
<polygon fill="black" stroke="black" points="413.73,-49 423.73,-45.5 413.73,-42 413.73,-49"/>
</g>
</g>
</svg>
