<?xml version="1.0" encoding="UTF-8" standalone="no"?>
<!DOCTYPE svg PUBLIC "-//W3C//DTD SVG 1.1//EN"
 "http://www.w3.org/Graphics/SVG/1.1/DTD/svg11.dtd">
<!-- Generated by graphviz version 3.0.0 (0)
 -->
<!-- Pages: 1 -->
<svg width="832pt" height="100pt"
 viewBox="0.00 0.00 832.00 100.00" xmlns="http://www.w3.org/2000/svg" xmlns:xlink="http://www.w3.org/1999/xlink">
<g id="graph0" class="graph" transform="scale(1 1) rotate(0) translate(4 96)">
<polygon fill="white" stroke="transparent" points="-4,4 -4,-96 828,-96 828,4 -4,4"/>
<!-- 140404045543440 -->
<g id="node1" class="node">
<title>140404045543440</title>
<polygon fill="none" stroke="black" points="320.5,-55.5 320.5,-91.5 509.5,-91.5 509.5,-55.5 320.5,-55.5"/>
<text text-anchor="middle" x="332" y="-69.8" font-family="Times,serif" font-size="14.00">e</text>
<polyline fill="none" stroke="black" points="343.5,-55.5 343.5,-91.5 "/>
<text text-anchor="middle" x="383.5" y="-69.8" font-family="Times,serif" font-size="14.00">data 1.0000</text>
<polyline fill="none" stroke="black" points="423.5,-55.5 423.5,-91.5 "/>
<text text-anchor="middle" x="466.5" y="-69.8" font-family="Times,serif" font-size="14.00">grad &#45;6.0000</text>
</g>
<!-- 140404045543888* -->
<g id="node7" class="node">
<title>140404045543888*</title>
<ellipse fill="none" stroke="black" cx="573" cy="-45.5" rx="27" ry="18"/>
<text text-anchor="middle" x="573" y="-41.8" font-family="Times,serif" font-size="14.00">*</text>
</g>
<!-- 140404045543440&#45;&gt;140404045543888* -->
<g id="edge9" class="edge">
<title>140404045543440&#45;&gt;140404045543888*</title>
<path fill="none" stroke="black" d="M509.9,-56.65C519.42,-54.94 528.62,-53.29 536.89,-51.8"/>
<polygon fill="black" stroke="black" points="537.59,-55.23 546.81,-50.02 536.35,-48.34 537.59,-55.23"/>
</g>
<!-- 140404045543440+ -->
<g id="node2" class="node">
<title>140404045543440+</title>
<ellipse fill="none" stroke="black" cx="257" cy="-73.5" rx="27" ry="18"/>
<text text-anchor="middle" x="257" y="-69.8" font-family="Times,serif" font-size="14.00">+</text>
</g>
<!-- 140404045543440+&#45;&gt;140404045543440 -->
<g id="edge1" class="edge">
<title>140404045543440+&#45;&gt;140404045543440</title>
<path fill="none" stroke="black" d="M284.11,-73.5C291.84,-73.5 300.8,-73.5 310.35,-73.5"/>
<polygon fill="black" stroke="black" points="310.48,-77 320.48,-73.5 310.48,-70 310.48,-77"/>
</g>
<!-- 140404045377488 -->
<g id="node3" class="node">
<title>140404045377488</title>
<polygon fill="none" stroke="black" points="0,-55.5 0,-91.5 194,-91.5 194,-55.5 0,-55.5"/>
<text text-anchor="middle" x="11.5" y="-69.8" font-family="Times,serif" font-size="14.00">a</text>
<polyline fill="none" stroke="black" points="23,-55.5 23,-91.5 "/>
<text text-anchor="middle" x="65.5" y="-69.8" font-family="Times,serif" font-size="14.00">data &#45;2.0000</text>
<polyline fill="none" stroke="black" points="108,-55.5 108,-91.5 "/>
<text text-anchor="middle" x="151" y="-69.8" font-family="Times,serif" font-size="14.00">grad &#45;3.0000</text>
</g>
<!-- 140404045377488&#45;&gt;140404045543440+ -->
<g id="edge5" class="edge">
<title>140404045377488&#45;&gt;140404045543440+</title>
<path fill="none" stroke="black" d="M194.01,-73.5C202.98,-73.5 211.65,-73.5 219.51,-73.5"/>
<polygon fill="black" stroke="black" points="219.7,-77 229.7,-73.5 219.7,-70 219.7,-77"/>
</g>
<!-- 140404045544144* -->
<g id="node5" class="node">
<title>140404045544144*</title>
<ellipse fill="none" stroke="black" cx="257" cy="-18.5" rx="27" ry="18"/>
<text text-anchor="middle" x="257" y="-14.8" font-family="Times,serif" font-size="14.00">*</text>
</g>
<!-- 140404045377488&#45;&gt;140404045544144* -->
<g id="edge8" class="edge">
<title>140404045377488&#45;&gt;140404045544144*</title>
<path fill="none" stroke="black" d="M166.84,-55.49C176.04,-52.69 185.3,-49.67 194,-46.5 204.51,-42.67 215.73,-37.84 225.7,-33.28"/>
<polygon fill="black" stroke="black" points="227.23,-36.43 234.81,-29.02 224.27,-30.09 227.23,-36.43"/>
</g>
<!-- 140404045544144 -->
<g id="node4" class="node">
<title>140404045544144</title>
<polygon fill="none" stroke="black" points="320,-0.5 320,-36.5 510,-36.5 510,-0.5 320,-0.5"/>
<text text-anchor="middle" x="331.5" y="-14.8" font-family="Times,serif" font-size="14.00">d</text>
<polyline fill="none" stroke="black" points="343,-0.5 343,-36.5 "/>
<text text-anchor="middle" x="385.5" y="-14.8" font-family="Times,serif" font-size="14.00">data &#45;6.0000</text>
<polyline fill="none" stroke="black" points="428,-0.5 428,-36.5 "/>
<text text-anchor="middle" x="469" y="-14.8" font-family="Times,serif" font-size="14.00">grad 1.0000</text>
</g>
<!-- 140404045544144&#45;&gt;140404045543888* -->
<g id="edge6" class="edge">
<title>140404045544144&#45;&gt;140404045543888*</title>
<path fill="none" stroke="black" d="M510.34,-34.83C519.62,-36.44 528.58,-37.99 536.66,-39.38"/>
<polygon fill="black" stroke="black" points="536.27,-42.87 546.72,-41.12 537.46,-35.97 536.27,-42.87"/>
</g>
<!-- 140404045544144*&#45;&gt;140404045544144 -->
<g id="edge2" class="edge">
<title>140404045544144*&#45;&gt;140404045544144</title>
<path fill="none" stroke="black" d="M284.11,-18.5C291.63,-18.5 300.32,-18.5 309.58,-18.5"/>
<polygon fill="black" stroke="black" points="309.81,-22 319.81,-18.5 309.81,-15 309.81,-22"/>
</g>
<!-- 140404045543888 -->
<g id="node6" class="node">
<title>140404045543888</title>
<polygon fill="none" stroke="black" points="636,-27.5 636,-63.5 824,-63.5 824,-27.5 636,-27.5"/>
<text text-anchor="middle" x="646.5" y="-41.8" font-family="Times,serif" font-size="14.00">f</text>
<polyline fill="none" stroke="black" points="657,-27.5 657,-63.5 "/>
<text text-anchor="middle" x="699.5" y="-41.8" font-family="Times,serif" font-size="14.00">data &#45;6.0000</text>
<polyline fill="none" stroke="black" points="742,-27.5 742,-63.5 "/>
<text text-anchor="middle" x="783" y="-41.8" font-family="Times,serif" font-size="14.00">grad 1.0000</text>
</g>
<!-- 140404045543888*&#45;&gt;140404045543888 -->
<g id="edge3" class="edge">
<title>140404045543888*&#45;&gt;140404045543888</title>
<path fill="none" stroke="black" d="M600.29,-45.5C607.78,-45.5 616.42,-45.5 625.6,-45.5"/>
<polygon fill="black" stroke="black" points="625.76,-49 635.76,-45.5 625.76,-42 625.76,-49"/>
</g>
<!-- 140404045376976 -->
<g id="node8" class="node">
<title>140404045376976</title>
<polygon fill="none" stroke="black" points="2.5,-0.5 2.5,-36.5 191.5,-36.5 191.5,-0.5 2.5,-0.5"/>
<text text-anchor="middle" x="14" y="-14.8" font-family="Times,serif" font-size="14.00">b</text>
<polyline fill="none" stroke="black" points="25.5,-0.5 25.5,-36.5 "/>
<text text-anchor="middle" x="65.5" y="-14.8" font-family="Times,serif" font-size="14.00">data 3.0000</text>
<polyline fill="none" stroke="black" points="105.5,-0.5 105.5,-36.5 "/>
<text text-anchor="middle" x="148.5" y="-14.8" font-family="Times,serif" font-size="14.00">grad &#45;8.0000</text>
</g>
<!-- 140404045376976&#45;&gt;140404045543440+ -->
<g id="edge4" class="edge">
<title>140404045376976&#45;&gt;140404045543440+</title>
<path fill="none" stroke="black" d="M163.94,-36.53C174.08,-39.65 184.37,-43.01 194,-46.5 204.27,-50.22 215.26,-54.8 225.09,-59.12"/>
<polygon fill="black" stroke="black" points="223.91,-62.43 234.47,-63.32 226.77,-56.04 223.91,-62.43"/>
</g>
<!-- 140404045376976&#45;&gt;140404045544144* -->
<g id="edge7" class="edge">
<title>140404045376976&#45;&gt;140404045544144*</title>
<path fill="none" stroke="black" d="M191.74,-18.5C201.55,-18.5 211.04,-18.5 219.59,-18.5"/>
<polygon fill="black" stroke="black" points="219.87,-22 229.87,-18.5 219.87,-15 219.87,-22"/>
</g>
</g>
</svg>
