<?xml version="1.0" encoding="UTF-8" standalone="no"?>
<!DOCTYPE svg PUBLIC "-//W3C//DTD SVG 1.1//EN"
 "http://www.w3.org/Graphics/SVG/1.1/DTD/svg11.dtd">
<!-- Generated by graphviz version 3.0.0 (0)
 -->
<!-- Pages: 1 -->
<svg width="1575pt" height="210pt"
 viewBox="0.00 0.00 1575.00 210.00" xmlns="http://www.w3.org/2000/svg" xmlns:xlink="http://www.w3.org/1999/xlink">
<g id="graph0" class="graph" transform="scale(1 1) rotate(0) translate(4 206)">
<polygon fill="white" stroke="transparent" points="-4,4 -4,-206 1571,-206 1571,4 -4,4"/>
<!-- 140404041050640 -->
<g id="node1" class="node">
<title>140404041050640</title>
<polygon fill="none" stroke="black" points="326,-55.5 326,-91.5 546,-91.5 546,-55.5 326,-55.5"/>
<text text-anchor="middle" x="352.5" y="-69.8" font-family="Times,serif" font-size="14.00">x1*w1</text>
<polyline fill="none" stroke="black" points="379,-55.5 379,-91.5 "/>
<text text-anchor="middle" x="421.5" y="-69.8" font-family="Times,serif" font-size="14.00">data &#45;6.0000</text>
<polyline fill="none" stroke="black" points="464,-55.5 464,-91.5 "/>
<text text-anchor="middle" x="505" y="-69.8" font-family="Times,serif" font-size="14.00">grad 0.0000</text>
</g>
<!-- 140404045193488+ -->
<g id="node9" class="node">
<title>140404045193488+</title>
<ellipse fill="none" stroke="black" cx="609" cy="-100.5" rx="27" ry="18"/>
<text text-anchor="middle" x="609" y="-96.8" font-family="Times,serif" font-size="14.00">+</text>
</g>
<!-- 140404041050640&#45;&gt;140404045193488+ -->
<g id="edge9" class="edge">
<title>140404041050640&#45;&gt;140404045193488+</title>
<path fill="none" stroke="black" d="M546.27,-90.75C555.64,-92.23 564.6,-93.65 572.65,-94.92"/>
<polygon fill="black" stroke="black" points="572.23,-98.4 582.65,-96.5 573.32,-91.48 572.23,-98.4"/>
</g>
<!-- 140404041050640* -->
<g id="node2" class="node">
<title>140404041050640*</title>
<ellipse fill="none" stroke="black" cx="263" cy="-73.5" rx="27" ry="18"/>
<text text-anchor="middle" x="263" y="-69.8" font-family="Times,serif" font-size="14.00">*</text>
</g>
<!-- 140404041050640*&#45;&gt;140404041050640 -->
<g id="edge1" class="edge">
<title>140404041050640*&#45;&gt;140404041050640</title>
<path fill="none" stroke="black" d="M290.34,-73.5C297.77,-73.5 306.37,-73.5 315.6,-73.5"/>
<polygon fill="black" stroke="black" points="315.84,-77 325.84,-73.5 315.84,-70 315.84,-77"/>
</g>
<!-- 140404041051152 -->
<g id="node3" class="node">
<title>140404041051152</title>
<polygon fill="none" stroke="black" points="4,-165.5 4,-201.5 196,-201.5 196,-165.5 4,-165.5"/>
<text text-anchor="middle" x="19" y="-179.8" font-family="Times,serif" font-size="14.00">x2</text>
<polyline fill="none" stroke="black" points="34,-165.5 34,-201.5 "/>
<text text-anchor="middle" x="74" y="-179.8" font-family="Times,serif" font-size="14.00">data 0.0000</text>
<polyline fill="none" stroke="black" points="114,-165.5 114,-201.5 "/>
<text text-anchor="middle" x="155" y="-179.8" font-family="Times,serif" font-size="14.00">grad 0.0000</text>
</g>
<!-- 140404041050832* -->
<g id="node7" class="node">
<title>140404041050832*</title>
<ellipse fill="none" stroke="black" cx="263" cy="-128.5" rx="27" ry="18"/>
<text text-anchor="middle" x="263" y="-124.8" font-family="Times,serif" font-size="14.00">*</text>
</g>
<!-- 140404041051152&#45;&gt;140404041050832* -->
<g id="edge7" class="edge">
<title>140404041051152&#45;&gt;140404041050832*</title>
<path fill="none" stroke="black" d="M172.53,-165.44C181.84,-162.67 191.2,-159.67 200,-156.5 210.53,-152.71 221.75,-147.9 231.72,-143.33"/>
<polygon fill="black" stroke="black" points="233.25,-146.48 240.82,-139.07 230.28,-140.14 233.25,-146.48"/>
</g>
<!-- 140404041051728 -->
<g id="node4" class="node">
<title>140404041051728</title>
<polygon fill="none" stroke="black" points="4,-55.5 4,-91.5 196,-91.5 196,-55.5 4,-55.5"/>
<text text-anchor="middle" x="19" y="-69.8" font-family="Times,serif" font-size="14.00">x1</text>
<polyline fill="none" stroke="black" points="34,-55.5 34,-91.5 "/>
<text text-anchor="middle" x="74" y="-69.8" font-family="Times,serif" font-size="14.00">data 2.0000</text>
<polyline fill="none" stroke="black" points="114,-55.5 114,-91.5 "/>
<text text-anchor="middle" x="155" y="-69.8" font-family="Times,serif" font-size="14.00">grad 0.0000</text>
</g>
<!-- 140404041051728&#45;&gt;140404041050640* -->
<g id="edge14" class="edge">
<title>140404041051728&#45;&gt;140404041050640*</title>
<path fill="none" stroke="black" d="M196.05,-73.5C206.52,-73.5 216.65,-73.5 225.71,-73.5"/>
<polygon fill="black" stroke="black" points="225.79,-77 235.79,-73.5 225.79,-70 225.79,-77"/>
</g>
<!-- 140404041051792 -->
<g id="node5" class="node">
<title>140404041051792</title>
<polygon fill="none" stroke="black" points="716,-137.5 716,-173.5 901,-173.5 901,-137.5 716,-137.5"/>
<text text-anchor="middle" x="727.5" y="-151.8" font-family="Times,serif" font-size="14.00">b</text>
<polyline fill="none" stroke="black" points="739,-137.5 739,-173.5 "/>
<text text-anchor="middle" x="779" y="-151.8" font-family="Times,serif" font-size="14.00">data 6.8814</text>
<polyline fill="none" stroke="black" points="819,-137.5 819,-173.5 "/>
<text text-anchor="middle" x="860" y="-151.8" font-family="Times,serif" font-size="14.00">grad 0.0000</text>
</g>
<!-- 140404045196624+ -->
<g id="node12" class="node">
<title>140404045196624+</title>
<ellipse fill="none" stroke="black" cx="1008" cy="-127.5" rx="27" ry="18"/>
<text text-anchor="middle" x="1008" y="-123.8" font-family="Times,serif" font-size="14.00">+</text>
</g>
<!-- 140404041051792&#45;&gt;140404045196624+ -->
<g id="edge8" class="edge">
<title>140404041051792&#45;&gt;140404045196624+</title>
<path fill="none" stroke="black" d="M901.02,-142.52C926,-138.98 951.59,-135.36 971.37,-132.55"/>
<polygon fill="black" stroke="black" points="972.03,-135.99 981.43,-131.12 971.04,-129.06 972.03,-135.99"/>
</g>
<!-- 140404041050832 -->
<g id="node6" class="node">
<title>140404041050832</title>
<polygon fill="none" stroke="black" points="328.5,-110.5 328.5,-146.5 543.5,-146.5 543.5,-110.5 328.5,-110.5"/>
<text text-anchor="middle" x="355" y="-124.8" font-family="Times,serif" font-size="14.00">x2*w2</text>
<polyline fill="none" stroke="black" points="381.5,-110.5 381.5,-146.5 "/>
<text text-anchor="middle" x="421.5" y="-124.8" font-family="Times,serif" font-size="14.00">data 0.0000</text>
<polyline fill="none" stroke="black" points="461.5,-110.5 461.5,-146.5 "/>
<text text-anchor="middle" x="502.5" y="-124.8" font-family="Times,serif" font-size="14.00">grad 0.0000</text>
</g>
<!-- 140404041050832&#45;&gt;140404045193488+ -->
<g id="edge12" class="edge">
<title>140404041050832&#45;&gt;140404045193488+</title>
<path fill="none" stroke="black" d="M543.84,-111.01C554.01,-109.34 563.76,-107.74 572.44,-106.32"/>
<polygon fill="black" stroke="black" points="573.17,-109.75 582.47,-104.68 572.04,-102.84 573.17,-109.75"/>
</g>
<!-- 140404041050832*&#45;&gt;140404041050832 -->
<g id="edge2" class="edge">
<title>140404041050832*&#45;&gt;140404041050832</title>
<path fill="none" stroke="black" d="M290.34,-128.5C298.51,-128.5 308.08,-128.5 318.36,-128.5"/>
<polygon fill="black" stroke="black" points="318.39,-132 328.39,-128.5 318.39,-125 318.39,-132"/>
</g>
<!-- 140404045193488 -->
<g id="node8" class="node">
<title>140404045193488</title>
<polygon fill="none" stroke="black" points="672,-82.5 672,-118.5 945,-118.5 945,-82.5 672,-82.5"/>
<text text-anchor="middle" x="725" y="-96.8" font-family="Times,serif" font-size="14.00">x1*w1 + x2*w2</text>
<polyline fill="none" stroke="black" points="778,-82.5 778,-118.5 "/>
<text text-anchor="middle" x="820.5" y="-96.8" font-family="Times,serif" font-size="14.00">data &#45;6.0000</text>
<polyline fill="none" stroke="black" points="863,-82.5 863,-118.5 "/>
<text text-anchor="middle" x="904" y="-96.8" font-family="Times,serif" font-size="14.00">grad 0.0000</text>
</g>
<!-- 140404045193488&#45;&gt;140404045196624+ -->
<g id="edge10" class="edge">
<title>140404045193488&#45;&gt;140404045196624+</title>
<path fill="none" stroke="black" d="M941.24,-118.51C952.12,-120 962.4,-121.4 971.45,-122.64"/>
<polygon fill="black" stroke="black" points="971.11,-126.13 981.49,-124.01 972.05,-119.19 971.11,-126.13"/>
</g>
<!-- 140404045193488+&#45;&gt;140404045193488 -->
<g id="edge3" class="edge">
<title>140404045193488+&#45;&gt;140404045193488</title>
<path fill="none" stroke="black" d="M636.23,-100.5C643.7,-100.5 652.41,-100.5 661.87,-100.5"/>
<polygon fill="black" stroke="black" points="661.98,-104 671.98,-100.5 661.98,-97 661.98,-104"/>
</g>
<!-- 140404041050512 -->
<g id="node10" class="node">
<title>140404041050512</title>
<polygon fill="none" stroke="black" points="2.5,-110.5 2.5,-146.5 197.5,-146.5 197.5,-110.5 2.5,-110.5"/>
<text text-anchor="middle" x="19" y="-124.8" font-family="Times,serif" font-size="14.00">w2</text>
<polyline fill="none" stroke="black" points="35.5,-110.5 35.5,-146.5 "/>
<text text-anchor="middle" x="75.5" y="-124.8" font-family="Times,serif" font-size="14.00">data 1.0000</text>
<polyline fill="none" stroke="black" points="115.5,-110.5 115.5,-146.5 "/>
<text text-anchor="middle" x="156.5" y="-124.8" font-family="Times,serif" font-size="14.00">grad 0.0000</text>
</g>
<!-- 140404041050512&#45;&gt;140404041050832* -->
<g id="edge13" class="edge">
<title>140404041050512&#45;&gt;140404041050832*</title>
<path fill="none" stroke="black" d="M197.91,-128.5C207.65,-128.5 217.05,-128.5 225.52,-128.5"/>
<polygon fill="black" stroke="black" points="225.7,-132 235.7,-128.5 225.7,-125 225.7,-132"/>
</g>
<!-- 140404045196624 -->
<g id="node11" class="node">
<title>140404045196624</title>
<polygon fill="none" stroke="black" points="1071,-109.5 1071,-145.5 1256,-145.5 1256,-109.5 1071,-109.5"/>
<text text-anchor="middle" x="1082.5" y="-123.8" font-family="Times,serif" font-size="14.00">n</text>
<polyline fill="none" stroke="black" points="1094,-109.5 1094,-145.5 "/>
<text text-anchor="middle" x="1134" y="-123.8" font-family="Times,serif" font-size="14.00">data 0.8814</text>
<polyline fill="none" stroke="black" points="1174,-109.5 1174,-145.5 "/>
<text text-anchor="middle" x="1215" y="-123.8" font-family="Times,serif" font-size="14.00">grad 0.0000</text>
</g>
<!-- 140404045195152tanh -->
<g id="node14" class="node">
<title>140404045195152tanh</title>
<ellipse fill="none" stroke="black" cx="1319" cy="-127.5" rx="27" ry="18"/>
<text text-anchor="middle" x="1319" y="-123.8" font-family="Times,serif" font-size="14.00">tanh</text>
</g>
<!-- 140404045196624&#45;&gt;140404045195152tanh -->
<g id="edge6" class="edge">
<title>140404045196624&#45;&gt;140404045195152tanh</title>
<path fill="none" stroke="black" d="M1256.01,-127.5C1265.01,-127.5 1273.74,-127.5 1281.66,-127.5"/>
<polygon fill="black" stroke="black" points="1281.91,-131 1291.91,-127.5 1281.91,-124 1281.91,-131"/>
</g>
<!-- 140404045196624+&#45;&gt;140404045196624 -->
<g id="edge4" class="edge">
<title>140404045196624+&#45;&gt;140404045196624</title>
<path fill="none" stroke="black" d="M1035.04,-127.5C1042.58,-127.5 1051.3,-127.5 1060.57,-127.5"/>
<polygon fill="black" stroke="black" points="1060.81,-131 1070.81,-127.5 1060.81,-124 1060.81,-131"/>
</g>
<!-- 140404045195152 -->
<g id="node13" class="node">
<title>140404045195152</title>
<polygon fill="none" stroke="black" points="1382,-109.5 1382,-145.5 1567,-145.5 1567,-109.5 1382,-109.5"/>
<text text-anchor="middle" x="1393.5" y="-123.8" font-family="Times,serif" font-size="14.00">o</text>
<polyline fill="none" stroke="black" points="1405,-109.5 1405,-145.5 "/>
<text text-anchor="middle" x="1445" y="-123.8" font-family="Times,serif" font-size="14.00">data 0.7071</text>
<polyline fill="none" stroke="black" points="1485,-109.5 1485,-145.5 "/>
<text text-anchor="middle" x="1526" y="-123.8" font-family="Times,serif" font-size="14.00">grad 0.0000</text>
</g>
<!-- 140404045195152tanh&#45;&gt;140404045195152 -->
<g id="edge5" class="edge">
<title>140404045195152tanh&#45;&gt;140404045195152</title>
<path fill="none" stroke="black" d="M1346.04,-127.5C1353.58,-127.5 1362.3,-127.5 1371.57,-127.5"/>
<polygon fill="black" stroke="black" points="1371.81,-131 1381.81,-127.5 1371.81,-124 1371.81,-131"/>
</g>
<!-- 140404029101008 -->
<g id="node15" class="node">
<title>140404029101008</title>
<polygon fill="none" stroke="black" points="0,-0.5 0,-36.5 200,-36.5 200,-0.5 0,-0.5"/>
<text text-anchor="middle" x="16.5" y="-14.8" font-family="Times,serif" font-size="14.00">w1</text>
<polyline fill="none" stroke="black" points="33,-0.5 33,-36.5 "/>
<text text-anchor="middle" x="75.5" y="-14.8" font-family="Times,serif" font-size="14.00">data &#45;3.0000</text>
<polyline fill="none" stroke="black" points="118,-0.5 118,-36.5 "/>
<text text-anchor="middle" x="159" y="-14.8" font-family="Times,serif" font-size="14.00">grad 0.0000</text>
</g>
<!-- 140404029101008&#45;&gt;140404041050640* -->
<g id="edge11" class="edge">
<title>140404029101008&#45;&gt;140404041050640*</title>
<path fill="none" stroke="black" d="M169.28,-36.5C179.65,-39.61 190.16,-42.98 200,-46.5 210.28,-50.17 221.28,-54.74 231.11,-59.07"/>
<polygon fill="black" stroke="black" points="229.93,-62.37 240.48,-63.27 232.79,-55.99 229.93,-62.37"/>
</g>
</g>
</svg>
