<?xml version="1.0" encoding="UTF-8" standalone="no"?>
<!DOCTYPE svg PUBLIC "-//W3C//DTD SVG 1.1//EN"
 "http://www.w3.org/Graphics/SVG/1.1/DTD/svg11.dtd">
<!-- Generated by graphviz version 3.0.0 (0)
 -->
<!-- Pages: 1 -->
<svg width="1153pt" height="154pt"
 viewBox="0.00 0.00 1153.00 154.00" xmlns="http://www.w3.org/2000/svg" xmlns:xlink="http://www.w3.org/1999/xlink">
<g id="graph0" class="graph" transform="scale(1 1) rotate(0) translate(4 150)">
<polygon fill="white" stroke="transparent" points="-4,4 -4,-150 1149,-150 1149,4 -4,4"/>
<!-- 140404042343440 -->
<g id="node1" class="node">
<title>140404042343440</title>
<polygon fill="none" stroke="black" points="317,-27.5 317,-63.5 511,-63.5 511,-27.5 317,-27.5"/>
<text text-anchor="middle" x="328.5" y="-41.8" font-family="Times,serif" font-size="14.00">e</text>
<polyline fill="none" stroke="black" points="340,-27.5 340,-63.5 "/>
<text text-anchor="middle" x="382.5" y="-41.8" font-family="Times,serif" font-size="14.00">data &#45;6.0000</text>
<polyline fill="none" stroke="black" points="425,-27.5 425,-63.5 "/>
<text text-anchor="middle" x="468" y="-41.8" font-family="Times,serif" font-size="14.00">grad &#45;2.0000</text>
</g>
<!-- 140404042343568+ -->
<g id="node6" class="node">
<title>140404042343568+</title>
<ellipse fill="none" stroke="black" cx="575" cy="-72.5" rx="27" ry="18"/>
<text text-anchor="middle" x="575" y="-68.8" font-family="Times,serif" font-size="14.00">+</text>
</g>
<!-- 140404042343440&#45;&gt;140404042343568+ -->
<g id="edge7" class="edge">
<title>140404042343440&#45;&gt;140404042343568+</title>
<path fill="none" stroke="black" d="M511.16,-61.83C520.82,-63.47 530.13,-65.05 538.49,-66.47"/>
<polygon fill="black" stroke="black" points="538.09,-69.95 548.54,-68.18 539.26,-63.05 538.09,-69.95"/>
</g>
<!-- 140404042343440* -->
<g id="node2" class="node">
<title>140404042343440*</title>
<ellipse fill="none" stroke="black" cx="253" cy="-45.5" rx="27" ry="18"/>
<text text-anchor="middle" x="253" y="-41.8" font-family="Times,serif" font-size="14.00">*</text>
</g>
<!-- 140404042343440*&#45;&gt;140404042343440 -->
<g id="edge1" class="edge">
<title>140404042343440*&#45;&gt;140404042343440</title>
<path fill="none" stroke="black" d="M280.26,-45.5C288.05,-45.5 297.1,-45.5 306.75,-45.5"/>
<polygon fill="black" stroke="black" points="306.99,-49 316.99,-45.5 306.99,-42 306.99,-49"/>
</g>
<!-- 140404042343504 -->
<g id="node3" class="node">
<title>140404042343504</title>
<polygon fill="none" stroke="black" points="953,-81.5 953,-117.5 1145,-117.5 1145,-81.5 953,-81.5"/>
<text text-anchor="middle" x="965.5" y="-95.8" font-family="Times,serif" font-size="14.00">L</text>
<polyline fill="none" stroke="black" points="978,-81.5 978,-117.5 "/>
<text text-anchor="middle" x="1020.5" y="-95.8" font-family="Times,serif" font-size="14.00">data &#45;8.0000</text>
<polyline fill="none" stroke="black" points="1063,-81.5 1063,-117.5 "/>
<text text-anchor="middle" x="1104" y="-95.8" font-family="Times,serif" font-size="14.00">grad 1.0000</text>
</g>
<!-- 140404042343504* -->
<g id="node4" class="node">
<title>140404042343504*</title>
<ellipse fill="none" stroke="black" cx="890" cy="-99.5" rx="27" ry="18"/>
<text text-anchor="middle" x="890" y="-95.8" font-family="Times,serif" font-size="14.00">*</text>
</g>
<!-- 140404042343504*&#45;&gt;140404042343504 -->
<g id="edge2" class="edge">
<title>140404042343504*&#45;&gt;140404042343504</title>
<path fill="none" stroke="black" d="M917.28,-99.5C924.78,-99.5 933.44,-99.5 942.67,-99.5"/>
<polygon fill="black" stroke="black" points="942.87,-103 952.87,-99.5 942.87,-96 942.87,-103"/>
</g>
<!-- 140404042343568 -->
<g id="node5" class="node">
<title>140404042343568</title>
<polygon fill="none" stroke="black" points="638,-54.5 638,-90.5 827,-90.5 827,-54.5 638,-54.5"/>
<text text-anchor="middle" x="649.5" y="-68.8" font-family="Times,serif" font-size="14.00">d</text>
<polyline fill="none" stroke="black" points="661,-54.5 661,-90.5 "/>
<text text-anchor="middle" x="701" y="-68.8" font-family="Times,serif" font-size="14.00">data 4.0000</text>
<polyline fill="none" stroke="black" points="741,-54.5 741,-90.5 "/>
<text text-anchor="middle" x="784" y="-68.8" font-family="Times,serif" font-size="14.00">grad &#45;2.0000</text>
</g>
<!-- 140404042343568&#45;&gt;140404042343504* -->
<g id="edge9" class="edge">
<title>140404042343568&#45;&gt;140404042343504*</title>
<path fill="none" stroke="black" d="M827.1,-88.75C836.4,-90.37 845.38,-91.93 853.49,-93.33"/>
<polygon fill="black" stroke="black" points="853.14,-96.83 863.59,-95.09 854.34,-89.93 853.14,-96.83"/>
</g>
<!-- 140404042343568+&#45;&gt;140404042343568 -->
<g id="edge3" class="edge">
<title>140404042343568+&#45;&gt;140404042343568</title>
<path fill="none" stroke="black" d="M602.03,-72.5C609.66,-72.5 618.52,-72.5 627.94,-72.5"/>
<polygon fill="black" stroke="black" points="627.94,-76 637.94,-72.5 627.94,-69 627.94,-76"/>
</g>
<!-- 140404042343120 -->
<g id="node7" class="node">
<title>140404042343120</title>
<polygon fill="none" stroke="black" points="0,-55.5 0,-91.5 190,-91.5 190,-55.5 0,-55.5"/>
<text text-anchor="middle" x="11.5" y="-69.8" font-family="Times,serif" font-size="14.00">b</text>
<polyline fill="none" stroke="black" points="23,-55.5 23,-91.5 "/>
<text text-anchor="middle" x="65.5" y="-69.8" font-family="Times,serif" font-size="14.00">data &#45;3.0000</text>
<polyline fill="none" stroke="black" points="108,-55.5 108,-91.5 "/>
<text text-anchor="middle" x="149" y="-69.8" font-family="Times,serif" font-size="14.00">grad 0.0000</text>
</g>
<!-- 140404042343120&#45;&gt;140404042343440* -->
<g id="edge4" class="edge">
<title>140404042343120&#45;&gt;140404042343440*</title>
<path fill="none" stroke="black" d="M190.34,-56.57C199.62,-54.9 208.58,-53.29 216.66,-51.84"/>
<polygon fill="black" stroke="black" points="217.49,-55.25 226.72,-50.04 216.26,-48.36 217.49,-55.25"/>
</g>
<!-- 140404042343184 -->
<g id="node8" class="node">
<title>140404042343184</title>
<polygon fill="none" stroke="black" points="2.5,-0.5 2.5,-36.5 187.5,-36.5 187.5,-0.5 2.5,-0.5"/>
<text text-anchor="middle" x="14" y="-14.8" font-family="Times,serif" font-size="14.00">a</text>
<polyline fill="none" stroke="black" points="25.5,-0.5 25.5,-36.5 "/>
<text text-anchor="middle" x="65.5" y="-14.8" font-family="Times,serif" font-size="14.00">data 2.0000</text>
<polyline fill="none" stroke="black" points="105.5,-0.5 105.5,-36.5 "/>
<text text-anchor="middle" x="146.5" y="-14.8" font-family="Times,serif" font-size="14.00">grad 6.0000</text>
</g>
<!-- 140404042343184&#45;&gt;140404042343440* -->
<g id="edge6" class="edge">
<title>140404042343184&#45;&gt;140404042343440*</title>
<path fill="none" stroke="black" d="M187.65,-34.36C197.94,-36.14 207.91,-37.87 216.81,-39.41"/>
<polygon fill="black" stroke="black" points="216.26,-42.87 226.71,-41.12 217.45,-35.97 216.26,-42.87"/>
</g>
<!-- 140404042343248 -->
<g id="node9" class="node">
<title>140404042343248</title>
<polygon fill="none" stroke="black" points="638.5,-109.5 638.5,-145.5 826.5,-145.5 826.5,-109.5 638.5,-109.5"/>
<text text-anchor="middle" x="649" y="-123.8" font-family="Times,serif" font-size="14.00">f</text>
<polyline fill="none" stroke="black" points="659.5,-109.5 659.5,-145.5 "/>
<text text-anchor="middle" x="702" y="-123.8" font-family="Times,serif" font-size="14.00">data &#45;2.0000</text>
<polyline fill="none" stroke="black" points="744.5,-109.5 744.5,-145.5 "/>
<text text-anchor="middle" x="785.5" y="-123.8" font-family="Times,serif" font-size="14.00">grad 4.0000</text>
</g>
<!-- 140404042343248&#45;&gt;140404042343504* -->
<g id="edge8" class="edge">
<title>140404042343248&#45;&gt;140404042343504*</title>
<path fill="none" stroke="black" d="M826.65,-110.73C836.2,-109.01 845.43,-107.35 853.72,-105.85"/>
<polygon fill="black" stroke="black" points="854.47,-109.27 863.69,-104.06 853.23,-102.39 854.47,-109.27"/>
</g>
<!-- 140404036319184 -->
<g id="node10" class="node">
<title>140404036319184</title>
<polygon fill="none" stroke="black" points="316,-82.5 316,-118.5 512,-118.5 512,-82.5 316,-82.5"/>
<text text-anchor="middle" x="327.5" y="-96.8" font-family="Times,serif" font-size="14.00">c</text>
<polyline fill="none" stroke="black" points="339,-82.5 339,-118.5 "/>
<text text-anchor="middle" x="382.5" y="-96.8" font-family="Times,serif" font-size="14.00">data 10.0000</text>
<polyline fill="none" stroke="black" points="426,-82.5 426,-118.5 "/>
<text text-anchor="middle" x="469" y="-96.8" font-family="Times,serif" font-size="14.00">grad &#45;2.0000</text>
</g>
<!-- 140404036319184&#45;&gt;140404042343568+ -->
<g id="edge5" class="edge">
<title>140404036319184&#45;&gt;140404042343568+</title>
<path fill="none" stroke="black" d="M512.07,-83.41C521.42,-81.76 530.43,-80.17 538.55,-78.74"/>
<polygon fill="black" stroke="black" points="539.41,-82.15 548.65,-76.96 538.2,-75.25 539.41,-82.15"/>
</g>
</g>
</svg>
