<?xml version="1.0" encoding="UTF-8" standalone="no"?>
<!DOCTYPE svg PUBLIC "-//W3C//DTD SVG 1.1//EN"
 "http://www.w3.org/Graphics/SVG/1.1/DTD/svg11.dtd">
<!-- Generated by graphviz version 3.0.0 (0)
 -->
<!-- Pages: 1 -->
<svg width="504pt" height="45pt"
 viewBox="0.00 0.00 504.00 45.00" xmlns="http://www.w3.org/2000/svg" xmlns:xlink="http://www.w3.org/1999/xlink">
<g id="graph0" class="graph" transform="scale(1 1) rotate(0) translate(4 41)">
<polygon fill="white" stroke="transparent" points="-4,4 -4,-41 500,-41 500,4 -4,4"/>
<!-- 140404045374800 -->
<g id="node1" class="node">
<title>140404045374800</title>
<polygon fill="none" stroke="black" points="0,-0.5 0,-36.5 185,-36.5 185,-0.5 0,-0.5"/>
<text text-anchor="middle" x="11.5" y="-14.8" font-family="Times,serif" font-size="14.00">b</text>
<polyline fill="none" stroke="black" points="23,-0.5 23,-36.5 "/>
<text text-anchor="middle" x="63" y="-14.8" font-family="Times,serif" font-size="14.00">data 3.0000</text>
<polyline fill="none" stroke="black" points="103,-0.5 103,-36.5 "/>
<text text-anchor="middle" x="144" y="-14.8" font-family="Times,serif" font-size="14.00">grad 1.0000</text>
</g>
<!-- 140404045226192+ -->
<g id="node3" class="node">
<title>140404045226192+</title>
<ellipse fill="none" stroke="black" cx="248" cy="-18.5" rx="27" ry="18"/>
<text text-anchor="middle" x="248" y="-14.8" font-family="Times,serif" font-size="14.00">+</text>
</g>
<!-- 140404045374800&#45;&gt;140404045226192+ -->
<g id="edge2" class="edge">
<title>140404045374800&#45;&gt;140404045226192+</title>
<path fill="none" stroke="black" d="M185.01,-18.5C194.01,-18.5 202.74,-18.5 210.66,-18.5"/>
<polygon fill="black" stroke="black" points="210.91,-22 220.91,-18.5 210.91,-15 210.91,-22"/>
</g>
<!-- 140404045226192 -->
<g id="node2" class="node">
<title>140404045226192</title>
<polygon fill="none" stroke="black" points="311,-0.5 311,-36.5 496,-36.5 496,-0.5 311,-0.5"/>
<text text-anchor="middle" x="322.5" y="-14.8" font-family="Times,serif" font-size="14.00">b</text>
<polyline fill="none" stroke="black" points="334,-0.5 334,-36.5 "/>
<text text-anchor="middle" x="374" y="-14.8" font-family="Times,serif" font-size="14.00">data 6.0000</text>
<polyline fill="none" stroke="black" points="414,-0.5 414,-36.5 "/>
<text text-anchor="middle" x="455" y="-14.8" font-family="Times,serif" font-size="14.00">grad 1.0000</text>
</g>
<!-- 140404045226192+&#45;&gt;140404045226192 -->
<g id="edge1" class="edge">
<title>140404045226192+&#45;&gt;140404045226192</title>
<path fill="none" stroke="black" d="M275.04,-18.5C282.58,-18.5 291.3,-18.5 300.57,-18.5"/>
<polygon fill="black" stroke="black" points="300.81,-22 310.81,-18.5 300.81,-15 300.81,-22"/>
</g>
</g>
</svg>
