<?xml version="1.0" encoding="UTF-8" standalone="no"?>
<!DOCTYPE svg PUBLIC "-//W3C//DTD SVG 1.1//EN"
 "http://www.w3.org/Graphics/SVG/1.1/DTD/svg11.dtd">
<!-- Generated by graphviz version 3.0.0 (0)
 -->
<!-- Pages: 1 -->
<svg width="820pt" height="154pt"
 viewBox="0.00 0.00 820.00 154.00" xmlns="http://www.w3.org/2000/svg" xmlns:xlink="http://www.w3.org/1999/xlink">
<g id="graph0" class="graph" transform="scale(1 1) rotate(0) translate(4 150)">
<polygon fill="white" stroke="transparent" points="-4,4 -4,-150 816,-150 816,4 -4,4"/>
<!-- 140589338243152 -->
<g id="node1" class="node">
<title>140589338243152</title>
<polygon fill="none" stroke="black" points="470,-109.5 470,-145.5 576,-145.5 576,-109.5 470,-109.5"/>
<text text-anchor="middle" x="480.5" y="-123.8" font-family="Times,serif" font-size="14.00">f</text>
<polyline fill="none" stroke="black" points="491,-109.5 491,-145.5 "/>
<text text-anchor="middle" x="533.5" y="-123.8" font-family="Times,serif" font-size="14.00">data &#45;2.0000</text>
</g>
<!-- 140589338206096* -->
<g id="node8" class="node">
<title>140589338206096*</title>
<ellipse fill="none" stroke="black" cx="639" cy="-99.5" rx="27" ry="18"/>
<text text-anchor="middle" x="639" y="-95.8" font-family="Times,serif" font-size="14.00">*</text>
</g>
<!-- 140589338243152&#45;&gt;140589338206096* -->
<g id="edge5" class="edge">
<title>140589338243152&#45;&gt;140589338206096*</title>
<path fill="none" stroke="black" d="M576.33,-114.65C585.48,-112.4 594.8,-110.11 603.33,-108.02"/>
<polygon fill="black" stroke="black" points="604.39,-111.36 613.27,-105.57 602.72,-104.56 604.39,-111.36"/>
</g>
<!-- 140589338205904 -->
<g id="node2" class="node">
<title>140589338205904</title>
<polygon fill="none" stroke="black" points="0,-55.5 0,-91.5 108,-91.5 108,-55.5 0,-55.5"/>
<text text-anchor="middle" x="11.5" y="-69.8" font-family="Times,serif" font-size="14.00">b</text>
<polyline fill="none" stroke="black" points="23,-55.5 23,-91.5 "/>
<text text-anchor="middle" x="65.5" y="-69.8" font-family="Times,serif" font-size="14.00">data &#45;3.0000</text>
</g>
<!-- 140589338206032* -->
<g id="node6" class="node">
<title>140589338206032*</title>
<ellipse fill="none" stroke="black" cx="171" cy="-45.5" rx="27" ry="18"/>
<text text-anchor="middle" x="171" y="-41.8" font-family="Times,serif" font-size="14.00">*</text>
</g>
<!-- 140589338205904&#45;&gt;140589338206032* -->
<g id="edge9" class="edge">
<title>140589338205904&#45;&gt;140589338206032*</title>
<path fill="none" stroke="black" d="M108.12,-60.57C117.51,-58.28 127.06,-55.95 135.76,-53.84"/>
<polygon fill="black" stroke="black" points="136.62,-57.23 145.51,-51.46 134.97,-50.43 136.62,-57.23"/>
</g>
<!-- 140589337114320 -->
<g id="node3" class="node">
<title>140589337114320</title>
<polygon fill="none" stroke="black" points="234,-82.5 234,-118.5 344,-118.5 344,-82.5 234,-82.5"/>
<text text-anchor="middle" x="245.5" y="-96.8" font-family="Times,serif" font-size="14.00">c</text>
<polyline fill="none" stroke="black" points="257,-82.5 257,-118.5 "/>
<text text-anchor="middle" x="300.5" y="-96.8" font-family="Times,serif" font-size="14.00">data 10.0000</text>
</g>
<!-- 140589338206160+ -->
<g id="node10" class="node">
<title>140589338206160+</title>
<ellipse fill="none" stroke="black" cx="407" cy="-72.5" rx="27" ry="18"/>
<text text-anchor="middle" x="407" y="-68.8" font-family="Times,serif" font-size="14.00">+</text>
</g>
<!-- 140589337114320&#45;&gt;140589338206160+ -->
<g id="edge7" class="edge">
<title>140589337114320&#45;&gt;140589338206160+</title>
<path fill="none" stroke="black" d="M344.26,-87.4C353.49,-85.18 362.84,-82.92 371.37,-80.86"/>
<polygon fill="black" stroke="black" points="372.42,-84.21 381.32,-78.46 370.78,-77.4 372.42,-84.21"/>
</g>
<!-- 140589338205968 -->
<g id="node4" class="node">
<title>140589338205968</title>
<polygon fill="none" stroke="black" points="2.5,-0.5 2.5,-36.5 105.5,-36.5 105.5,-0.5 2.5,-0.5"/>
<text text-anchor="middle" x="14" y="-14.8" font-family="Times,serif" font-size="14.00">a</text>
<polyline fill="none" stroke="black" points="25.5,-0.5 25.5,-36.5 "/>
<text text-anchor="middle" x="65.5" y="-14.8" font-family="Times,serif" font-size="14.00">data 2.0000</text>
</g>
<!-- 140589338205968&#45;&gt;140589338206032* -->
<g id="edge6" class="edge">
<title>140589338205968&#45;&gt;140589338206032*</title>
<path fill="none" stroke="black" d="M105.78,-30.42C115.74,-32.76 125.98,-35.17 135.28,-37.35"/>
<polygon fill="black" stroke="black" points="134.77,-40.82 145.3,-39.7 136.37,-34.01 134.77,-40.82"/>
</g>
<!-- 140589338206032 -->
<g id="node5" class="node">
<title>140589338206032</title>
<polygon fill="none" stroke="black" points="235,-27.5 235,-63.5 343,-63.5 343,-27.5 235,-27.5"/>
<text text-anchor="middle" x="246.5" y="-41.8" font-family="Times,serif" font-size="14.00">e</text>
<polyline fill="none" stroke="black" points="258,-27.5 258,-63.5 "/>
<text text-anchor="middle" x="300.5" y="-41.8" font-family="Times,serif" font-size="14.00">data &#45;6.0000</text>
</g>
<!-- 140589338206032&#45;&gt;140589338206160+ -->
<g id="edge4" class="edge">
<title>140589338206032&#45;&gt;140589338206160+</title>
<path fill="none" stroke="black" d="M343.25,-57.89C352.75,-60.11 362.43,-62.36 371.24,-64.41"/>
<polygon fill="black" stroke="black" points="370.6,-67.85 381.14,-66.71 372.19,-61.04 370.6,-67.85"/>
</g>
<!-- 140589338206032*&#45;&gt;140589338206032 -->
<g id="edge1" class="edge">
<title>140589338206032*&#45;&gt;140589338206032</title>
<path fill="none" stroke="black" d="M198.03,-45.5C206.08,-45.5 215.32,-45.5 224.74,-45.5"/>
<polygon fill="black" stroke="black" points="224.99,-49 234.99,-45.5 224.99,-42 224.99,-49"/>
</g>
<!-- 140589338206096 -->
<g id="node7" class="node">
<title>140589338206096</title>
<polygon fill="none" stroke="black" points="702,-81.5 702,-117.5 812,-117.5 812,-81.5 702,-81.5"/>
<text text-anchor="middle" x="714.5" y="-95.8" font-family="Times,serif" font-size="14.00">L</text>
<polyline fill="none" stroke="black" points="727,-81.5 727,-117.5 "/>
<text text-anchor="middle" x="769.5" y="-95.8" font-family="Times,serif" font-size="14.00">data &#45;8.0000</text>
</g>
<!-- 140589338206096*&#45;&gt;140589338206096 -->
<g id="edge2" class="edge">
<title>140589338206096*&#45;&gt;140589338206096</title>
<path fill="none" stroke="black" d="M666.03,-99.5C673.7,-99.5 682.45,-99.5 691.42,-99.5"/>
<polygon fill="black" stroke="black" points="691.58,-103 701.58,-99.5 691.58,-96 691.58,-103"/>
</g>
<!-- 140589338206160 -->
<g id="node9" class="node">
<title>140589338206160</title>
<polygon fill="none" stroke="black" points="471.5,-54.5 471.5,-90.5 574.5,-90.5 574.5,-54.5 471.5,-54.5"/>
<text text-anchor="middle" x="483" y="-68.8" font-family="Times,serif" font-size="14.00">d</text>
<polyline fill="none" stroke="black" points="494.5,-54.5 494.5,-90.5 "/>
<text text-anchor="middle" x="534.5" y="-68.8" font-family="Times,serif" font-size="14.00">data 4.0000</text>
</g>
<!-- 140589338206160&#45;&gt;140589338206096* -->
<g id="edge8" class="edge">
<title>140589338206160&#45;&gt;140589338206096*</title>
<path fill="none" stroke="black" d="M574.67,-84.5C584.43,-86.81 594.45,-89.18 603.55,-91.34"/>
<polygon fill="black" stroke="black" points="602.83,-94.77 613.37,-93.67 604.45,-87.96 602.83,-94.77"/>
</g>
<!-- 140589338206160+&#45;&gt;140589338206160 -->
<g id="edge3" class="edge">
<title>140589338206160+&#45;&gt;140589338206160</title>
<path fill="none" stroke="black" d="M434.15,-72.5C442.26,-72.5 451.57,-72.5 461.02,-72.5"/>
<polygon fill="black" stroke="black" points="461.28,-76 471.28,-72.5 461.28,-69 461.28,-76"/>
</g>
</g>
</svg>
